<svg width="14" height="12" viewBox="0 0 14 12" fill="none" xmlns="http://www.w3.org/2000/svg">
<path d="M11.9997 2H9.66634V1.33333C9.66581 0.979874 9.52517 0.641042 9.27523 0.391109C9.0253 0.141175 8.68647 0.000529 8.33301 0H5.66634C5.31288 0.000529 4.97405 0.141175 4.72412 0.391109C4.47418 0.641042 4.33354 0.979874 4.33301 1.33333V2H1.99967C1.55765 2 1.13372 2.17559 0.821163 2.48816C0.508603 2.80072 0.333008 3.22464 0.333008 3.66667V10.3333C0.333008 10.7754 0.508603 11.1993 0.821163 11.5118C1.13372 11.8244 1.55765 12 1.99967 12H11.9997C12.4417 12 12.8656 11.8244 13.1782 11.5118C13.4907 11.1993 13.6663 10.7754 13.6663 10.3333V3.66667C13.6663 3.22464 13.4907 2.80072 13.1782 2.48816C12.8656 2.17559 12.4417 2 11.9997 2ZM4.99967 1.33333C4.99967 1.15652 5.06991 0.986953 5.19494 0.861929C5.31996 0.736905 5.48953 0.666667 5.66634 0.666667H8.33301C8.50982 0.666667 8.67939 0.736905 8.80441 0.861929C8.92944 0.986953 8.99967 1.15652 8.99967 1.33333V2H4.99967V1.33333ZM12.9997 10.3333C12.9997 10.5985 12.8943 10.8529 12.7068 11.0404C12.5192 11.228 12.2649 11.3333 11.9997 11.3333H1.99967C1.73446 11.3333 1.4801 11.228 1.29257 11.0404C1.10503 10.8529 0.999674 10.5985 0.999674 10.3333V6.018L4.89434 7.31667C4.92833 7.32784 4.9639 7.33347 4.99967 7.33333H8.99967C9.03545 7.33347 9.07102 7.32784 9.10501 7.31667L12.9997 6.018V10.3333ZM12.9997 5.33733C12.9641 5.33612 12.9285 5.34062 12.8943 5.35067L8.94567 6.66667H5.05367L1.10501 5.35C1.07083 5.33996 1.03527 5.33545 0.999674 5.33667V3.66667C0.999674 3.40145 1.10503 3.1471 1.29257 2.95956C1.4801 2.77202 1.73446 2.66667 1.99967 2.66667H11.9997C12.2649 2.66667 12.5192 2.77202 12.7068 2.95956C12.8943 3.1471 12.9997 3.40145 12.9997 3.66667V5.33733Z" fill="#F5F5F5" fill-opacity="0.3"/>
</svg>
