<svg width="84" height="84" viewBox="0 0 84 84" fill="none" xmlns="http://www.w3.org/2000/svg">
<g clip-path="url(#clip0_0_1673)">
<rect width="84" height="84" rx="42" fill="#1D1B1A"/>
<path fill-rule="evenodd" clip-rule="evenodd" d="M88.8002 41.9996C88.8002 69.413 67.8471 91.636 42.0002 91.636C16.1533 91.636 -4.7998 69.413 -4.7998 41.9996C-4.7998 14.5862 16.1533 -7.63672 42.0002 -7.63672C67.8471 -7.63672 88.8002 14.5862 88.8002 41.9996ZM43.6773 29.007C39.1253 31.0151 30.0277 35.1713 16.3846 41.4757C14.1691 42.4101 13.0086 43.3242 12.903 44.218C12.7244 45.7286 14.508 46.3234 16.9367 47.1334C17.2671 47.2436 17.6094 47.3577 17.9604 47.4787C20.3499 48.3025 23.5642 49.2663 25.2352 49.3046C26.751 49.3393 28.4427 48.6766 30.3105 47.3163C43.0577 38.1901 49.6379 33.5772 50.051 33.4778C50.3425 33.4076 50.7463 33.3194 51.02 33.5774C51.2936 33.8353 51.2667 34.3239 51.2377 34.4549C51.0611 35.2538 44.0599 42.1572 40.4368 45.7297C39.3073 46.8434 38.5061 47.6334 38.3423 47.8139C37.9754 48.218 37.6015 48.6003 37.2421 48.9678C35.0222 51.2375 33.3575 52.9396 37.3343 55.7191C39.2454 57.0548 40.7747 58.1594 42.3003 59.2613C43.9665 60.4647 45.6283 61.665 47.7785 63.1599C48.3263 63.5407 48.8495 63.9363 49.3591 64.3216C51.2981 65.7878 53.0401 67.1049 55.1923 66.8949C56.4428 66.7728 57.7346 65.5257 58.3906 61.806C59.941 53.0154 62.9885 33.9687 63.6928 26.12C63.7546 25.4324 63.6769 24.5523 63.6146 24.166C63.5523 23.7797 63.422 23.2293 62.9485 22.8218C62.3878 22.3392 61.5222 22.2375 61.135 22.2447C59.3748 22.2776 56.6742 23.2736 43.6773 29.007Z" fill="#F5F5F5"/>
</g>
<defs>
<clipPath id="clip0_0_1673">
<rect width="84" height="84" rx="42" fill="white"/>
</clipPath>
</defs>
</svg>
