<svg width="35" height="35" viewBox="0 0 35 35" fill="none" xmlns="http://www.w3.org/2000/svg">
<path d="M10.2084 24.7917V13.1248H18.9584V16.0417H23.0422L25.9584 13.1248H29.1672C29.5539 13.1248 29.9247 13.2784 30.1982 13.5518C30.4716 13.8253 30.6253 14.1961 30.6253 14.5829V29.1667C30.6253 29.5534 30.4716 29.9242 30.1982 30.1977C29.9247 30.4711 29.5539 30.6248 29.1672 30.6248H7.29216C6.90535 30.6308 6.52122 30.5597 6.16211 30.4159C5.80301 30.272 5.47611 30.0581 5.20046 29.7867C4.9248 29.5153 4.70588 29.1917 4.55646 28.8349C4.40703 28.4781 4.33008 28.0951 4.33008 27.7082C4.33008 27.3214 4.40703 26.9384 4.55646 26.5815C4.70588 26.2247 4.9248 25.9012 5.20046 25.6297C5.47611 25.3583 5.80301 25.1444 6.16211 25.0006C6.52122 24.8567 6.90535 24.7857 7.29216 24.7917M10.2084 24.7917H7.29216M10.2084 24.7917V8.74976H7.29216C6.51855 8.74976 5.77663 9.05707 5.2296 9.6041C4.68258 10.1511 4.37526 10.893 4.37526 11.6667V27.7079C4.37545 26.9344 4.68285 26.1926 5.22985 25.6457C5.77686 25.0989 6.51867 24.7917 7.29216 24.7917" stroke="#1D1B1A" stroke-opacity="0.3" stroke-linecap="round" stroke-linejoin="round"/>
<path d="M30.2021 6.8388L28.1602 4.7976C27.8877 4.53048 27.5212 4.38086 27.1396 4.38086C26.758 4.38086 26.3916 4.53048 26.119 4.7976L18.958 11.9586V16.0417H23.0418L30.2021 8.8807C30.4692 8.60814 30.6188 8.24173 30.6188 7.8601C30.6188 7.47847 30.4692 7.11135 30.2021 6.8388Z" stroke="#1D1B1A" stroke-opacity="0.3" stroke-linecap="round" stroke-linejoin="round"/>
</svg>
