<svg width="15" height="15" viewBox="0 0 15 15" fill="none" xmlns="http://www.w3.org/2000/svg">
<g clip-path="url(#clip0_0_1195)">
<path d="M7.50206 10.9723C7.69882 10.9723 7.86387 10.9057 7.9972 10.7723C8.13053 10.639 8.19697 10.4742 8.19651 10.2779V7.50011C8.19651 7.30335 8.12984 7.13853 7.99651 7.00566C7.86317 6.87279 7.69836 6.80613 7.50206 6.80566C7.30577 6.8052 7.14095 6.87187 7.00762 7.00566C6.87428 7.13946 6.80762 7.30428 6.80762 7.50011V10.2779C6.80762 10.4746 6.87428 10.6397 7.00762 10.773C7.14095 10.9064 7.30577 10.9728 7.50206 10.9723ZM7.50206 5.41677C7.69882 5.41677 7.86387 5.35011 7.9972 5.21677C8.13053 5.08344 8.19697 4.91863 8.19651 4.72233C8.19604 4.52603 8.12938 4.36122 7.99651 4.22789C7.86364 4.09455 7.69882 4.02789 7.50206 4.02789C7.3053 4.02789 7.14049 4.09455 7.00762 4.22789C6.87475 4.36122 6.80808 4.52603 6.80762 4.72233C6.80715 4.91863 6.87382 5.08367 7.00762 5.21747C7.14141 5.35127 7.30623 5.4177 7.50206 5.41677ZM7.50206 14.4446C6.54141 14.4446 5.63864 14.2621 4.79373 13.8973C3.94882 13.5325 3.21387 13.0378 2.58887 12.4133C1.96387 11.7888 1.46919 11.0538 1.10484 10.2084C0.740488 9.36307 0.558081 8.46029 0.557618 7.50011C0.557155 6.53992 0.739563 5.63715 1.10484 4.79178C1.47012 3.9464 1.96479 3.21145 2.58887 2.58691C3.21294 1.96238 3.9479 1.4677 4.79373 1.10289C5.63956 0.738072 6.54234 0.555664 7.50206 0.555664C8.46178 0.555664 9.36456 0.738072 10.2104 1.10289C11.0562 1.4677 11.7912 1.96238 12.4153 2.58691C13.0393 3.21145 13.5342 3.9464 13.9 4.79178C14.2657 5.63715 14.4479 6.53992 14.4465 7.50011C14.4451 8.46029 14.2627 9.36307 13.8993 10.2084C13.5359 11.0538 13.0412 11.7888 12.4153 12.4133C11.7893 13.0378 11.0544 13.5327 10.2104 13.898C9.36641 14.2633 8.46364 14.4455 7.50206 14.4446Z" fill="#1D1B1A" fill-opacity="0.3"/>
</g>
<defs>
<clipPath id="clip0_0_1195">
<rect width="15" height="15" fill="white"/>
</clipPath>
</defs>
</svg>
