<svg width="35" height="35" viewBox="0 0 35 35" fill="none" xmlns="http://www.w3.org/2000/svg">
<g clip-path="url(#clip0_0_1155)">
<path d="M6.18854 17.8653C5.61193 17.2925 5.15508 16.6107 4.84461 15.8595C4.53415 15.1084 4.37628 14.303 4.38021 13.4903C4.38021 11.8465 5.0332 10.27 6.19554 9.10767C7.35787 7.94534 8.93434 7.29234 10.5781 7.29234C12.8823 7.29234 14.8948 8.54651 15.9594 10.4132H17.5927C18.1339 9.46389 18.917 8.67497 19.8623 8.12677C20.8076 7.57856 21.8812 7.29065 22.974 7.29234C24.6177 7.29234 26.1942 7.94534 27.3565 9.10767C28.5189 10.27 29.1719 11.8465 29.1719 13.4903C29.1719 15.1965 28.4427 16.7715 27.3635 17.8653L16.776 28.4382L6.18854 17.8653ZM28.3844 18.9007C29.7698 17.5007 30.6302 15.6048 30.6302 13.4903C30.6302 11.4597 29.8236 9.5123 28.3877 8.07647C26.9519 6.64065 25.0045 5.83401 22.974 5.83401C20.4219 5.83401 18.1615 7.07359 16.776 8.99859C16.0689 8.0164 15.1378 7.21697 14.0599 6.66661C12.982 6.11625 11.7884 5.83083 10.5781 5.83401C8.54756 5.83401 6.60016 6.64065 5.16434 8.07647C3.72851 9.5123 2.92188 11.4597 2.92188 13.4903C2.92188 15.6048 3.78229 17.5007 5.16771 18.9007L16.776 30.509L28.3844 18.9007Z" fill="#F5F5F5" fill-opacity="0.5"/>
<path d="M33.3601 20.781C33.3601 20.926 33.3025 21.0651 33.1999 21.1677C33.0973 21.2702 32.9582 21.3279 32.8132 21.3279H30.0788V24.0622C30.0788 24.2073 30.0212 24.3464 29.9187 24.4489C29.8161 24.5515 29.677 24.6091 29.532 24.6091C29.3869 24.6091 29.2478 24.5515 29.1453 24.4489C29.0427 24.3464 28.9851 24.2073 28.9851 24.0622V21.3279H26.2507C26.1057 21.3279 25.9666 21.2702 25.864 21.1677C25.7614 21.0651 25.7038 20.926 25.7038 20.781C25.7038 20.6359 25.7614 20.4968 25.864 20.3943C25.9666 20.2917 26.1057 20.2341 26.2507 20.2341H28.9851V17.4997C28.9851 17.3547 29.0427 17.2156 29.1453 17.113C29.2478 17.0105 29.3869 16.9529 29.532 16.9529C29.677 16.9529 29.8161 17.0105 29.9187 17.113C30.0212 17.2156 30.0788 17.3547 30.0788 17.4997V20.2341H32.8132C32.9582 20.2341 33.0973 20.2917 33.1999 20.3943C33.3025 20.4968 33.3601 20.6359 33.3601 20.781ZM7.65696 9.29661H10.3913V12.031C10.3913 12.176 10.4489 12.3151 10.5515 12.4177C10.6541 12.5202 10.7932 12.5779 10.9382 12.5779C11.0832 12.5779 11.2223 12.5202 11.3249 12.4177C11.4275 12.3151 11.4851 12.176 11.4851 12.031V9.29661H14.2195C14.3645 9.29661 14.5036 9.23899 14.6062 9.13643C14.7087 9.03387 14.7663 8.89477 14.7663 8.74973C14.7663 8.60469 14.7087 8.46559 14.6062 8.36303C14.5036 8.26047 14.3645 8.20286 14.2195 8.20286H11.4851V5.46848C11.4851 5.32344 11.4275 5.18434 11.3249 5.08178C11.2223 4.97922 11.0832 4.92161 10.9382 4.92161C10.7932 4.92161 10.6541 4.97922 10.5515 5.08178C10.4489 5.18434 10.3913 5.32344 10.3913 5.46848V8.20286H7.65696C7.51192 8.20286 7.37282 8.26047 7.27026 8.36303C7.1677 8.46559 7.11008 8.60469 7.11008 8.74973C7.11008 8.89477 7.1677 9.03387 7.27026 9.13643C7.37282 9.23899 7.51192 9.29661 7.65696 9.29661ZM25.157 26.7966H23.5163V25.156C23.5163 25.0109 23.4587 24.8718 23.3562 24.7693C23.2536 24.6667 23.1145 24.6091 22.9695 24.6091C22.8244 24.6091 22.6853 24.6667 22.5828 24.7693C22.4802 24.8718 22.4226 25.0109 22.4226 25.156V26.7966H20.782C20.6369 26.7966 20.4978 26.8542 20.3953 26.9568C20.2927 27.0593 20.2351 27.1984 20.2351 27.3435C20.2351 27.4885 20.2927 27.6276 20.3953 27.7302C20.4978 27.8327 20.6369 27.8904 20.782 27.8904H22.4226V29.531C22.4226 29.676 22.4802 29.8151 22.5828 29.9177C22.6853 30.0202 22.8244 30.0779 22.9695 30.0779C23.1145 30.0779 23.2536 30.0202 23.3562 29.9177C23.4587 29.8151 23.5163 29.676 23.5163 29.531V27.8904H25.157C25.302 27.8904 25.4411 27.8327 25.5437 27.7302C25.6462 27.6276 25.7038 27.4885 25.7038 27.3435C25.7038 27.1984 25.6462 27.0593 25.5437 26.9568C25.4411 26.8542 25.302 26.7966 25.157 26.7966ZM29.5976 10.5503L10.5513 29.598C10.3989 29.7509 10.2178 29.8723 10.0183 29.9551C9.81892 30.0379 9.60511 30.0805 9.38918 30.0805C9.17325 30.0805 8.95945 30.0379 8.76003 29.9551C8.56061 29.8723 8.37949 29.7509 8.22707 29.598L5.40247 26.7693C5.24952 26.6168 5.12816 26.4357 5.04535 26.2363C4.96255 26.0369 4.91992 25.8231 4.91992 25.6072C4.91992 25.3912 4.96255 25.1774 5.04535 24.978C5.12816 24.7786 5.24952 24.5975 5.40247 24.445L24.4501 5.40149C24.6025 5.24854 24.7837 5.12718 24.9831 5.04438C25.1825 4.96157 25.3963 4.91895 25.6122 4.91895C25.8282 4.91895 26.042 4.96157 26.2414 5.04438C26.4408 5.12718 26.6219 5.24854 26.7743 5.40149L29.5976 8.2302C29.9052 8.53787 30.0781 8.95516 30.0781 9.39026C30.0781 9.82536 29.9052 10.2426 29.5976 10.5503ZM23.2894 15.3122L19.6882 11.7111L6.17629 25.223C6.07402 25.3255 6.01659 25.4644 6.01659 25.6092C6.01659 25.754 6.07402 25.8929 6.17629 25.9954L9.00364 28.8241C9.05443 28.875 9.11474 28.9153 9.18113 28.9429C9.24752 28.9704 9.31868 28.9845 9.39055 28.9845C9.46242 28.9845 9.53358 28.9704 9.59997 28.9429C9.66636 28.9153 9.72668 28.875 9.77747 28.8241L23.2894 15.3122ZM28.8251 9.00403L25.9964 6.17532C25.9456 6.12447 25.8853 6.08413 25.8189 6.05661C25.7525 6.02909 25.6814 6.01493 25.6095 6.01493C25.5376 6.01493 25.4665 6.02909 25.4001 6.05661C25.3337 6.08413 25.2734 6.12447 25.2226 6.17532L20.4607 10.9372L24.0632 14.5384L28.8251 9.77649C28.9274 9.67397 28.9848 9.53507 28.9848 9.39026C28.9848 9.24545 28.9274 9.10655 28.8251 9.00403Z" fill="#1D1B1A" fill-opacity="0.3"/>
</g>
<defs>
<clipPath id="clip0_0_1155">
<rect width="35" height="35" fill="white"/>
</clipPath>
</defs>
</svg>
