<svg width="13" height="10" viewBox="0 0 13 10" fill="none" xmlns="http://www.w3.org/2000/svg">
<path d="M2.08571 3.91895C1.98796 3.82075 1.87177 3.74282 1.74382 3.68965C1.61587 3.63648 1.47867 3.60911 1.34011 3.60911C1.20155 3.60911 1.06435 3.63648 0.936399 3.68965C0.808446 3.74282 0.692257 3.82075 0.594503 3.91895C0.496303 4.0167 0.41838 4.13289 0.365209 4.26084C0.312039 4.3888 0.284668 4.52599 0.284668 4.66455C0.284668 4.80311 0.312039 4.94031 0.365209 5.06826C0.41838 5.19621 0.496303 5.3124 0.594503 5.41016L4.38552 9.20117L4.44704 9.2627C4.53951 9.35534 4.64933 9.42883 4.77024 9.47898C4.89114 9.52912 5.02074 9.55493 5.15163 9.55493C5.28252 9.55493 5.41213 9.52912 5.53303 9.47898C5.65393 9.42883 5.76376 9.35534 5.85622 9.2627L12.4041 2.71484C12.4967 2.62238 12.5702 2.51255 12.6204 2.39165C12.6705 2.27075 12.6963 2.14114 12.6963 2.01026C12.6963 1.87937 12.6705 1.74976 12.6204 1.62886C12.5702 1.50796 12.4967 1.39813 12.4041 1.30566L12.322 1.22363C12.2296 1.13099 12.1198 1.0575 11.9988 1.00735C11.8779 0.957207 11.7483 0.931396 11.6175 0.931396C11.4866 0.931396 11.357 0.957207 11.2361 1.00735C11.1152 1.0575 11.0053 1.13099 10.9129 1.22363L5.15017 6.9834L2.08571 3.91895Z" fill="#F5F5F5"/>
</svg>
