<svg width="35" height="35" viewBox="0 0 35 35" fill="none" xmlns="http://www.w3.org/2000/svg">
<path d="M30.6221 14.5837C30.6046 11.4118 30.4646 9.69387 29.3431 8.57387C28.0627 7.29199 25.9992 7.29199 21.875 7.29199H17.5C13.3758 7.29199 11.3123 7.29199 10.0319 8.57387C8.75 9.85428 8.75 11.9178 8.75 16.042V23.3337C8.75 27.4578 8.75 29.5214 10.0319 30.8018C11.3123 32.0837 13.3758 32.0837 17.5 32.0837H21.875C25.9992 32.0837 28.0627 32.0837 29.3431 30.8018C30.625 29.5214 30.625 27.4578 30.625 23.3337V21.8753" stroke="#1D1B1A" stroke-opacity="0.3" stroke-width="1.5" stroke-linecap="round"/>
<path d="M4.375 14.5837V23.3337C4.375 24.494 4.83594 25.6068 5.65641 26.4273C6.47688 27.2477 7.58968 27.7087 8.75 27.7087M26.25 7.29199C26.25 6.13167 25.7891 5.01887 24.9686 4.1984C24.1481 3.37793 23.0353 2.91699 21.875 2.91699H16.0417C10.5423 2.91699 7.79187 2.91699 6.08417 4.62616C5.13042 5.57845 4.70896 6.85449 4.52375 8.75033" stroke="#1D1B1A" stroke-opacity="0.3" stroke-width="1.5" stroke-linecap="round"/>
</svg>
