<svg width="15" height="15" viewBox="0 0 15 15" fill="none" xmlns="http://www.w3.org/2000/svg">
<path d="M14.8628 12.0504L10.3124 7.5L14.8628 2.9496C14.95 2.86134 14.9988 2.74227 14.9988 2.61821C14.9988 2.49414 14.95 2.37508 14.8628 2.28682L12.7132 0.137237C12.6253 0.0493642 12.5061 0 12.3818 0C12.2575 0 12.1383 0.0493642 12.0504 0.137237L7.5 4.68764L2.9496 0.137237C2.8617 0.0493642 2.7425 0 2.61821 0C2.49392 0 2.37472 0.0493642 2.28682 0.137237L0.137237 2.28682C0.0493642 2.37472 0 2.49392 0 2.61821C0 2.7425 0.0493642 2.8617 0.137237 2.9496L4.68764 7.5L0.137237 12.0504C0.0493642 12.1383 0 12.2575 0 12.3818C0 12.5061 0.0493642 12.6253 0.137237 12.7132L2.28682 14.8628C2.37472 14.9506 2.49392 15 2.61821 15C2.7425 15 2.8617 14.9506 2.9496 14.8628L7.5 10.3124L12.0504 14.8628C12.1383 14.9506 12.2575 15 12.3818 15C12.5061 15 12.6253 14.9506 12.7132 14.8628L14.8628 12.7132C14.9506 12.6253 15 12.5061 15 12.3818C15 12.2575 14.9506 12.1383 14.8628 12.0504Z" fill="#B56D25"/>
</svg>
