<svg width="33" height="28" viewBox="0 0 33 28" fill="none" xmlns="http://www.w3.org/2000/svg">
<path d="M31.8125 25.9846H29.0781V14.2733L30.3318 15.527C30.4345 15.6296 30.5736 15.6872 30.7188 15.6872C30.8639 15.6872 31.003 15.6296 31.1057 15.527C31.2083 15.4244 31.2659 15.2852 31.2659 15.1401C31.2659 14.9949 31.2083 14.8558 31.1057 14.7531L17.6607 1.30823C17.5083 1.15528 17.3272 1.03392 17.1278 0.951114C16.9284 0.868309 16.7146 0.825684 16.4986 0.825684C16.2827 0.825684 16.0689 0.868309 15.8695 0.951114C15.6701 1.03392 15.4889 1.15528 15.3365 1.30823L1.89434 14.7531C1.84353 14.804 1.80322 14.8643 1.77572 14.9307C1.74822 14.9971 1.73407 15.0682 1.73407 15.1401C1.73407 15.2119 1.74822 15.2831 1.77572 15.3495C1.80322 15.4158 1.84353 15.4762 1.89434 15.527C1.94515 15.5778 2.00547 15.6181 2.07185 15.6456C2.13824 15.6731 2.20939 15.6872 2.28125 15.6872C2.35311 15.6872 2.42426 15.6731 2.49065 15.6456C2.55703 15.6181 2.61735 15.5778 2.66816 15.527L3.92188 14.2733V25.9846H1.1875C1.04246 25.9846 0.90336 26.0422 0.800801 26.1448C0.698242 26.2473 0.640625 26.3864 0.640625 26.5315C0.640625 26.6765 0.698242 26.8156 0.800801 26.9182C0.90336 27.0207 1.04246 27.0783 1.1875 27.0783H31.8125C31.9575 27.0783 32.0966 27.0207 32.1992 26.9182C32.3018 26.8156 32.3594 26.6765 32.3594 26.5315C32.3594 26.3864 32.3018 26.2473 32.1992 26.1448C32.0966 26.0422 31.9575 25.9846 31.8125 25.9846ZM5.01562 13.1795L16.1131 2.08206C16.1639 2.03121 16.2242 1.99087 16.2906 1.96335C16.357 1.93583 16.4281 1.92166 16.5 1.92166C16.5719 1.92166 16.643 1.93583 16.7094 1.96335C16.7758 1.99087 16.8361 2.03121 16.8869 2.08206L27.9844 13.1795V25.9846H20.3281V17.7815C20.3281 17.6364 20.2705 17.4973 20.1679 17.3948C20.0654 17.2922 19.9263 17.2346 19.7812 17.2346H13.2188C13.0737 17.2346 12.9346 17.2922 12.8321 17.3948C12.7295 17.4973 12.6719 17.6364 12.6719 17.7815V25.9846H5.01562V13.1795ZM19.2344 25.9846H13.7656V18.3283H19.2344V25.9846Z" fill="#1D1B1A" fill-opacity="0.3"/>
</svg>
