<svg width="19" height="19" viewBox="0 0 19 19" fill="none" xmlns="http://www.w3.org/2000/svg">
<path d="M9.67312 14.1474C9.92683 14.1474 10.1396 14.0614 10.3116 13.8895C10.4835 13.7176 10.5692 13.5051 10.5686 13.2519V9.67019C10.5686 9.41648 10.4826 9.20397 10.3107 9.03264C10.1387 8.86131 9.92623 8.77535 9.67312 8.77475C9.42001 8.77416 9.20749 8.86012 9.03557 9.03264C8.86365 9.20516 8.77769 9.41768 8.77769 9.67019V13.2519C8.77769 13.5056 8.86365 13.7185 9.03557 13.8904C9.20749 14.0623 9.42001 14.148 9.67312 14.1474ZM9.67312 6.98388C9.92683 6.98388 10.1396 6.89792 10.3116 6.72599C10.4835 6.55407 10.5692 6.34155 10.5686 6.08844C10.568 5.83533 10.482 5.62282 10.3107 5.45089C10.1393 5.27897 9.92683 5.19301 9.67312 5.19301C9.41941 5.19301 9.2069 5.27897 9.03557 5.45089C8.86424 5.62282 8.77828 5.83533 8.77769 6.08844C8.77709 6.34155 8.86305 6.55437 9.03557 6.72689C9.20809 6.89941 9.42061 6.98507 9.67312 6.98388ZM9.67312 18.6246C8.43443 18.6246 7.27037 18.3894 6.18092 17.919C5.09147 17.4486 4.1438 16.8107 3.3379 16.0054C2.53201 15.2001 1.89416 14.2524 1.42436 13.1624C0.95455 12.0724 0.719348 10.9083 0.718751 9.67019C0.718154 8.4321 0.953356 7.26803 1.42436 6.17799C1.89536 5.08794 2.53321 4.14027 3.3379 3.33497C4.1426 2.52968 5.09028 1.89183 6.18092 1.42142C7.27156 0.951022 8.43563 0.71582 9.67312 0.71582C10.9106 0.71582 12.0747 0.951022 13.1653 1.42142C14.256 1.89183 15.2036 2.52968 16.0083 3.33497C16.813 4.14027 17.4512 5.08794 17.9228 6.17799C18.3944 7.26803 18.6293 8.4321 18.6275 9.67019C18.6257 10.9083 18.3905 12.0724 17.9219 13.1624C17.4533 14.2524 16.8154 15.2001 16.0083 16.0054C15.2013 16.8107 14.2536 17.4489 13.1653 17.9199C12.0771 18.3909 10.913 18.6258 9.67312 18.6246Z" fill="#B56D25"/>
</svg>
