<svg width="30" height="29" viewBox="0 0 30 29" fill="none" xmlns="http://www.w3.org/2000/svg">
<path d="M28.8813 25.3541L27.8956 19.4463C27.6547 18.0043 26.8509 16.717 25.6611 15.8675C24.4712 15.018 22.9927 14.6758 21.5506 14.9163L16.8984 15.692L15.4349 6.92772C15.3226 6.25897 14.9494 5.66215 14.3973 5.26839C13.8452 4.87463 13.1594 4.71613 12.4906 4.82772C11.0977 5.05915 10.1549 6.377 10.3906 7.772L12.3063 19.2577L11.5284 19.5427C10.9535 19.7532 10.4403 20.1039 10.0354 20.5631C9.63044 21.0223 9.34664 21.5754 9.20976 22.1721C9.07287 22.7688 9.08723 23.3903 9.25153 23.98C9.41584 24.5698 9.72487 25.1092 10.1506 25.5491L10.5449 25.9563L12.5891 28.0734M3.74986 1.07129L1.07129 3.74986M1.07129 3.74986L3.74986 6.42843M1.07129 3.74986H7.49986M21.9641 1.07129L24.6427 3.74986M24.6427 3.74986L21.9641 6.42843M24.6427 3.74986H18.2141" stroke="#1D1B1A" stroke-linecap="round" stroke-linejoin="round"/>
</svg>
