<svg width="474" height="95" viewBox="0 0 474 95" fill="none" xmlns="http://www.w3.org/2000/svg">
<path d="M47.3957 37.9949C47.9448 38.7055 47.8014 39.519 46.9656 40.4353C41.5736 45.7292 36.3422 49.0711 31.2714 50.4612C26.0613 52.004 23.7837 50.4862 24.4386 45.9076C21.0592 48.8405 17.8016 50.5205 14.6655 50.9475C11.2365 51.3869 8.81368 50.6459 7.39721 48.7244C6.13451 46.9432 5.94549 44.6025 6.83016 41.7024C5.77818 42.7013 4.8967 43.4361 4.18573 43.9067C3.8999 44.0657 3.57382 44.1529 3.20748 44.1685C2.83753 44.1109 2.49878 43.9418 2.19125 43.6613C1.88371 43.3807 1.75572 43.0192 1.80729 42.5766C1.86247 42.2073 2.02936 41.8699 2.30796 41.5645C2.51691 41.3354 2.90179 40.952 3.46261 40.4144L3.88051 39.9562L4.30383 39.6079C4.65208 39.2261 5.00214 38.8809 5.35401 38.5723C5.49692 38.4929 5.67466 38.3752 5.88723 38.2194C6.09618 37.9903 6.34176 37.7596 6.62398 37.5274C7.40098 36.9072 8.10652 36.3267 8.74061 35.786C10.6501 34.3102 11.8907 33.4133 12.4623 33.0954C16.3139 30.803 19.7307 29.3732 22.713 28.8059C25.5487 28.2449 28.3695 28.1249 31.1753 28.4459C32.2083 28.5488 32.7135 29.1145 32.6909 30.143C32.5986 31.2479 32.0378 31.7855 31.0084 31.7559C25.9385 31.678 21.0178 33.1351 16.2464 36.1272C13.0615 38.5381 11.1552 40.8211 10.5274 42.9763C9.96206 44.9087 10.5382 46.1687 12.2559 46.7562C14.0469 47.3406 16.3385 46.9128 19.1308 45.4729C22.4215 43.7181 25.6562 40.8281 28.8348 36.8028C30.3969 34.2408 31.9735 31.9718 33.5646 29.9957C34.2611 29.2321 35.0286 29.1628 35.8671 29.7877C36.6323 30.4157 36.7418 31.145 36.1954 31.9757L36.0964 32.2001L35.9973 32.4245C35.242 33.4842 34.1512 35.182 32.7247 37.5181C31.0305 40.3793 29.7487 42.6724 28.8794 44.3976C27.6176 47.0936 28.1793 48.0605 30.5645 47.2985C31.5062 47.0382 32.6201 46.5505 33.9063 45.8352C34.9068 45.2788 35.9054 44.6859 36.9022 44.0563C38.3277 43.1882 39.8157 42.0974 41.3661 40.7836C42.0038 40.3161 42.6397 39.812 43.2737 39.2712C43.7685 38.8832 44.2615 38.4585 44.7527 37.9973C45.1742 37.6123 45.6432 37.4456 46.1597 37.497C46.6726 37.4752 47.0846 37.6412 47.3957 37.9949ZM87.0776 36.3068C87.6266 37.0174 87.4832 37.8309 86.6474 38.7472L85.8008 39.4438L84.8496 40.255C84.0763 40.9485 83.3725 41.5656 82.7384 42.1063L81.9963 42.6884L81.1496 43.385L79.341 44.673C77.7761 45.6937 76.2755 46.5283 74.8391 47.1765C70.9623 48.9562 67.1632 49.338 63.442 48.322C59.898 50.8949 56.9375 51.9016 54.5604 51.3421C53.2967 51.0289 52.3832 50.3705 51.8197 49.3669C51.333 48.4334 51.3208 47.4431 51.7831 46.3958C52.9056 43.8525 55.9521 43.0991 60.9225 44.1354C61.5122 44.1837 62.2173 44.3372 63.0377 44.5959C65.992 41.9747 68.2285 38.9436 69.7472 35.5027C71.266 32.0618 71.0692 30.3086 69.1571 30.2431C63.2921 30.4193 56.6473 35.6196 49.2228 45.8442C44.7054 58.4406 40.7665 68.627 37.4061 76.4033C32.7286 87.245 29.4794 92.8147 27.6586 93.1123L26.9992 93.1404C25.5891 92.8334 25.8496 89.1891 27.7809 82.2075C32.737 65.1152 39.2901 51.3679 47.44 40.9656L48.2216 38.9507L48.8986 37.0502L48.9977 36.8258L48.9868 36.6061C47.5902 38.06 46.3293 39.288 45.204 40.2901C44.4307 40.9836 43.6555 41.6404 42.8785 42.2607C42.5926 42.4196 42.2666 42.5069 41.9002 42.5225C41.457 42.4679 41.0816 42.3004 40.7741 42.0199C40.5398 41.7363 40.4485 41.3732 40.5 40.9306C40.5552 40.5613 40.6855 40.2254 40.8908 39.9231C41.0997 39.694 41.8017 39.0403 42.9966 37.9619C43.5574 37.4242 44.1182 36.8866 44.679 36.3489C45.3791 35.6586 46.0792 34.9682 46.7794 34.2778C48.3885 32.668 50.251 30.2401 52.3667 26.9939C52.9167 26.2366 53.6073 26.0971 54.4386 26.5755C55.2698 27.0539 55.5222 27.7038 55.1957 28.525L55.1075 28.9692L54.9094 29.418C54.7881 29.9369 54.6633 30.3826 54.5349 30.7551C54.0871 32.0953 53.6357 33.3623 53.1807 34.556C56.9671 30.9452 60.6246 28.4409 64.1532 27.043C67.3924 25.7308 69.9897 25.547 71.9453 26.4913C73.8277 27.4388 74.6526 29.2754 74.4201 32.001C74.1251 34.9495 72.4965 38.3951 69.5341 42.3378C68.7788 43.3975 67.9448 44.3504 67.0321 45.1966C71.6407 44.8538 76.1019 43.0125 80.4156 39.6729C81.691 38.7379 83.0307 37.6166 84.4345 36.3091C84.856 35.9242 85.3617 35.7559 85.9514 35.8042C86.4643 35.7824 86.8397 35.9499 87.0776 36.3068ZM29.8337 85.8635C32.3167 81.1338 36.024 72.205 40.9557 59.0772C35.7075 68.7688 32.0001 77.6976 29.8337 85.8635ZM56.3867 48.1817C57.3319 47.9947 58.2351 47.6994 59.0962 47.2958C58.3563 47.1805 57.7665 47.1322 57.3269 47.1509L56.6675 47.1789L55.9037 47.3215C55.2479 47.4228 54.8539 47.6231 54.7219 47.9223C54.7988 47.9924 55.0222 48.0563 55.3921 48.1139C55.7621 48.1716 56.0936 48.1942 56.3867 48.1817ZM113.637 45.6361C113.864 45.7733 113.939 45.8068 113.862 45.7367C113.789 45.7398 113.714 45.7063 113.637 45.6361ZM115.739 23.5273C117.545 22.9367 118.802 23.1035 119.508 24.0276C120.214 24.9517 120.122 26.0566 119.231 27.3423C118.615 28.2492 118.058 28.8601 117.56 29.1749C116.779 29.7219 116.154 29.7118 115.686 29.1445C115.378 28.864 115.388 28.3131 115.714 27.4919C112.266 29.0331 108.05 32.1117 103.065 36.7276C104.866 38.9998 107.101 41.1433 109.77 43.1583C110.682 43.7801 111.592 44.3653 112.5 44.9138C112.804 45.1211 113.069 45.2933 113.296 45.4304L113.637 45.6361L113.862 45.7367C114.697 46.2883 114.843 47.0161 114.3 47.92C113.758 48.8238 113.034 49.0381 112.129 48.5628C107.603 46.113 103.742 43.0111 100.547 39.2569C99.8465 39.9473 98.7597 40.9844 97.2862 42.3682L95.4992 44.0957L93.6078 45.9377C90.3126 49.0872 87.1897 52.0092 84.239 54.7036C83.8872 55.0122 83.6068 55.281 83.3978 55.5101L82.3422 56.4358C81.5688 57.1293 80.975 57.7417 80.5607 58.2731C80.1428 58.7313 79.6756 58.9347 79.1591 58.8832C78.7159 58.8287 78.3387 58.6245 78.0276 58.2708C77.7128 57.8438 77.5446 57.4106 77.5229 56.9711C77.5708 56.4553 77.844 56.04 78.3424 55.7252C80.904 54.0748 84.1423 51.2581 88.0572 47.2748C89.2448 46.0499 90.9549 44.2523 93.1873 41.882L98.3174 36.4892C96.7255 33.988 95.5912 31.8343 94.9146 30.0282C94.636 30.3336 93.4814 31.4837 91.4507 33.4784C89.42 35.4732 88.2287 36.6248 87.8768 36.9334C86.3373 38.4668 84.9647 39.6629 83.7589 40.5216C83.5463 40.6774 83.2203 40.7647 82.7807 40.7834C82.4107 40.7257 82.072 40.5566 81.7644 40.2761C81.5302 39.9925 81.4388 39.6294 81.4904 39.1868C81.5419 38.7442 81.6722 38.4084 81.8811 38.1793C82.0901 37.9502 82.7554 37.298 83.877 36.2228C84.5111 35.682 85.0719 35.1444 85.5595 34.6098C86.2596 33.9195 86.9597 33.2291 87.6598 32.5387C89.2618 30.7824 91.7529 27.7038 95.1332 23.303C95.8957 22.3897 96.7365 22.3173 97.6555 23.0856C98.5708 23.7806 98.6857 24.6198 98 25.6031C98.3609 28.4503 99.3776 31.1962 101.05 33.8407C106.578 28.3209 111.474 24.8831 115.739 23.5273ZM161.04 33.1604C161.589 33.871 161.445 34.6845 160.61 35.6008C159.488 36.6761 158.361 37.6415 157.228 38.4971C149.957 44.3846 144.306 47.4141 140.277 47.5856C136.023 47.6931 135.273 44.3854 138.024 37.6626L136.754 38.7075C128.574 45.5145 122.764 48.2939 119.325 47.0456C116.263 46.0015 115.725 42.538 117.71 36.6551C117.15 37.1927 116.587 37.6938 116.023 38.1582L115.39 38.7355L114.753 39.2031C114.467 39.362 114.141 39.4493 113.774 39.4649C113.331 39.4103 112.956 39.2428 112.648 38.9623C112.414 38.6787 112.323 38.3156 112.374 37.873C112.429 37.5036 112.56 37.1678 112.765 36.8655C112.974 36.6364 113.604 36.0224 114.656 35.0235C115.147 34.5622 115.64 34.1375 116.135 33.7495C116.692 33.1386 117.286 32.5262 117.917 31.9121C119.104 30.6873 120.499 29.1967 122.101 27.4404C122.585 26.8326 123.173 26.1103 123.866 25.2734L124.812 24.3524L125.538 23.4408C126.304 22.6008 127.073 22.5681 127.846 23.3426C128.688 24.0407 128.763 24.8082 128.07 25.6451L127.861 25.8742L127.547 26.2178C126.719 27.2806 125.894 28.4167 125.073 29.626C124.046 31.1376 123.166 32.643 122.432 34.1422C120.422 38.0444 119.66 41.1962 120.146 43.5977C120.391 44.1011 121.239 44.1751 122.69 43.8198C124.28 43.3117 126.178 42.3502 128.384 40.9352C134.211 37.0174 140.402 30.8088 146.958 22.3093C147.713 21.2496 148.66 21.0993 149.799 21.8582C150.938 22.6171 151.096 23.6012 150.275 24.8105C142.755 36.0668 139.617 42.4024 140.861 43.8174C141.253 44.3145 142.949 43.7286 145.951 42.0595C147.094 41.4237 148.27 40.7131 149.48 39.9277C150.55 39.295 151.367 38.7464 151.932 38.282C153.496 37.2613 155.688 35.5533 158.507 33.158C158.928 32.7731 159.397 32.6064 159.914 32.6578C160.427 32.636 160.802 32.8035 161.04 33.1604ZM221.311 30.5964C221.86 31.307 221.716 32.1205 220.881 33.0368L216.757 36.5151C215.555 37.447 214.172 38.4234 212.607 39.4441C210.69 40.7734 208.872 41.8783 207.154 42.7588C202.5 45.1587 199.261 45.7369 197.438 44.4933C196.222 43.6642 196 42.1323 196.77 39.8976C197.02 39.0062 197.513 37.8476 198.251 36.4216L199.148 34.5118L200.253 32.3729C201.387 30.0494 202.21 28.1427 202.724 26.6529C202.919 26.1308 203.078 25.6469 203.203 25.2013C203.335 24.902 203.398 24.6792 203.39 24.5327C199.855 24.3161 195.407 26.4137 190.045 30.8255C188 32.5272 185.896 34.5251 183.733 36.819C181.988 38.6548 180.392 40.521 178.943 42.4175C178.254 43.3276 177.454 43.4718 176.542 42.85C175.557 42.2313 175.435 41.2456 176.176 39.893L176.379 39.554L176.786 38.8761C177.054 38.3509 177.358 37.8242 177.699 37.2959C178.502 35.7204 179.24 34.2945 179.911 33.0181C181.91 28.8962 182.767 26.1807 182.482 24.8717C181.303 24.7751 179.61 25.4343 177.404 26.8493C175.696 27.9495 173.788 29.4619 171.681 31.3865C170.068 32.9231 168.321 34.7223 166.441 36.784C165.671 37.5507 164.905 38.3907 164.142 39.3039C163.585 39.9148 162.993 40.5639 162.366 41.2511L160.81 43.189C160.392 43.6471 159.842 43.6705 159.161 43.2591C158.41 42.924 158.165 42.4207 158.426 41.749C158.401 41.2363 159.723 38.2808 162.393 32.8826L161.975 33.3408L161.448 33.8036C161.099 34.1854 160.89 34.4145 160.821 34.4908C159.274 35.8778 158.147 36.8432 157.44 37.3871C156.729 37.8577 156.027 37.7775 155.335 37.1463C155.101 36.8627 155.01 36.4996 155.061 36.057C155.116 35.6877 155.247 35.3519 155.452 35.0495C155.661 34.8204 156.328 34.2049 157.453 33.2028C158.014 32.6652 158.54 32.1657 159.031 31.7045C159.662 31.0904 160.292 30.4764 160.923 29.8624C161.971 28.7903 163.153 27.4555 164.469 25.8582L165.201 25.0564L165.822 24.2593C166.306 23.6515 166.724 23.1933 167.076 22.8848C168.535 21.2079 169.685 20.7186 170.527 21.4168C171.139 21.9045 171.283 22.5957 170.96 23.4902C170.703 24.2351 169.434 26.7846 167.153 31.1387C172.816 25.393 177.58 22.2544 181.446 21.723C185.615 21.3988 186.739 24.1034 184.82 29.8367C189.376 25.4592 193.821 22.5543 198.156 21.1222C201.626 20.0204 204.195 20.0212 205.865 21.1245C207.839 22.4351 207.868 25.2597 205.953 29.5982C205.355 30.8714 204.415 32.6363 203.131 34.8928L202.427 36.244L201.717 37.4852C201.244 38.3127 200.876 39.0257 200.611 39.6241L200.215 40.5217C200.083 40.8209 200.023 41.0804 200.033 41.3001C200.128 41.7365 200.79 41.7451 202.017 41.3259C203.534 40.8209 205.399 39.9342 207.613 38.6657C208.47 38.1888 209.362 37.6738 210.289 37.1205C210.927 36.653 211.602 36.184 212.312 35.7133C214.724 33.996 216.842 32.2911 218.668 30.5987C219.089 30.2138 219.595 30.0455 220.185 30.0938C220.698 30.072 221.073 30.2395 221.311 30.5964ZM255.783 29.1299C256.258 29.8436 256.078 30.6587 255.243 31.575C254.125 32.7235 252.255 34.271 249.635 36.2174L248.783 36.8042L247.826 37.5054C247.119 38.0493 246.445 38.5184 245.803 38.9127C244.022 40.016 242.34 40.8949 240.757 41.5495C236.375 43.4974 232.037 44.1224 227.744 43.4242C224.708 42.8928 222.47 41.4466 221.032 39.0857C219.828 37.0083 219.54 34.8921 220.168 32.7368C219.112 33.6625 218.266 34.3591 217.628 34.8266C217.416 34.9824 217.089 35.0697 216.65 35.0884C216.28 35.0308 215.941 34.8617 215.634 34.5812C215.399 34.2975 215.308 33.9344 215.36 33.4919C215.411 33.0493 215.541 32.7134 215.75 32.4844C215.959 32.2553 216.344 31.8719 216.905 31.3343L217.323 30.8761L217.746 30.5278C218.094 30.146 218.445 29.8008 218.796 29.4923C218.939 29.4128 219.364 29.1011 220.072 28.5572L220.501 28.3188L221.028 27.8559L222.199 27.0355C224.22 23.353 226.973 20.3734 230.458 18.0966C234.222 15.5143 237.774 14.5925 241.115 15.3312C242.598 15.6351 243.66 16.3239 244.3 17.3976C245.804 19.6089 243.651 22.086 237.839 24.8288C236.835 25.3119 235.684 25.8012 234.387 26.2968L232.662 27.0308L231.04 27.6502C228.519 28.6382 227.011 29.3263 226.517 29.7143C225.112 32.4898 224.783 34.7424 225.529 36.4723C226.198 38.1319 227.643 39.1348 229.862 39.4807C234.899 40.3674 240.609 38.5464 246.993 34.0178C248.771 32.8412 250.819 31.2127 253.14 29.1322C253.561 28.7473 254.03 28.5806 254.547 28.632C255.06 28.6102 255.472 28.7761 255.783 29.1299ZM241.085 19.1858L240.524 18.9895C240.304 18.9988 240.046 18.9731 239.75 18.9124C239.017 18.9435 238.251 19.0495 237.452 19.2303C235.21 19.9128 232.793 21.5203 230.202 24.0527L229.366 24.969C231.238 24.2288 233.107 23.4153 234.972 22.5286C237.266 21.4034 239.267 20.2907 240.975 19.1905L241.085 19.1858ZM259.58 27.427L258.847 30.4308C261.505 27.7488 264.64 25.0832 268.254 22.4339C270.072 20.595 272.027 19.3008 274.119 18.5512C275.424 18.2021 276.323 18.5675 276.817 19.6475C277.311 20.7275 277.022 21.5838 275.952 22.2165C273.603 23.711 271.511 25.1946 269.674 26.6673C268.424 28.115 267.407 29.8097 266.622 31.7515C265.697 33.846 265.374 35.4745 265.651 36.637C266.393 39.7616 270.738 38.5492 278.688 32.9997C280.813 31.4414 283.003 29.6967 285.257 27.7659C285.679 27.381 286.148 27.2142 286.664 27.2657C287.177 27.2438 287.589 27.4098 287.9 27.7636C288.376 28.4773 288.196 29.2923 287.36 30.2087C286.239 31.284 284.795 32.5198 283.028 33.9161C281.756 34.9243 280.517 35.8578 279.312 36.7165C277.677 37.8136 276.107 38.7245 274.601 39.4491C270.808 41.4454 267.791 42.0509 265.55 41.2654C262.415 40.2244 261.359 37.4435 262.384 32.9226C260.211 34.9968 257.905 37.3703 255.467 40.0429C254.774 40.8798 253.937 41.0255 252.956 40.48C251.974 39.9346 251.642 39.1414 251.957 38.1004L252.794 34.982L253.742 31.859C252.968 32.5525 252.369 33.0551 251.944 33.3668C251.233 33.8374 250.531 33.7572 249.839 33.126C249.605 32.8424 249.514 32.4793 249.565 32.0367C249.62 31.6674 249.787 31.33 250.066 31.0245C250.275 30.7954 250.94 30.1433 252.062 29.068C252.696 28.5272 253.257 27.9896 253.744 27.455C254.444 26.7647 255.145 26.0743 255.845 25.3839C257.973 19.4216 259.683 14.6514 260.975 11.0733C264.588 9.89204 265.794 10.538 264.595 13.0111L259.58 27.427ZM347.984 25.2075C348.533 25.9181 348.39 26.7316 347.554 27.648L343.431 31.1263C342.228 32.0582 340.845 33.0345 339.28 34.0553C337.363 35.3846 335.546 36.4895 333.827 37.37C329.173 39.7699 325.935 40.348 324.111 39.1045C322.895 38.2754 322.673 36.7435 323.444 34.5088C323.693 33.6174 324.187 32.4587 324.924 31.0328L325.821 29.123L326.927 26.9841C328.06 24.6606 328.884 22.7539 329.397 21.2641C329.592 20.742 329.752 20.2581 329.876 19.8124C330.008 19.5132 330.071 19.2904 330.064 19.1439C326.529 18.9273 322.08 21.0249 316.718 25.4366C314.673 27.1384 312.569 29.1363 310.406 31.4302C308.661 33.266 307.065 35.1322 305.617 37.0287C304.927 37.9388 304.127 38.083 303.215 37.4612C302.23 36.8425 302.108 35.8568 302.849 34.5041L303.052 34.1652L303.459 33.4873C303.727 32.9621 304.031 32.4354 304.373 31.9071C305.176 30.3316 305.913 28.9056 306.584 27.6293C308.583 23.5074 309.44 20.7919 309.155 19.4828C307.976 19.3862 306.283 20.0454 304.077 21.4604C302.369 22.5607 300.461 24.0731 298.354 25.9977C296.741 27.5343 294.994 29.3334 293.114 31.3952C292.344 32.1619 291.578 33.0019 290.815 33.9151C290.258 34.526 289.666 35.175 289.039 35.8623L287.483 37.8001C287.065 38.2583 286.516 38.2817 285.835 37.8703C285.084 37.5352 284.839 37.0319 285.099 36.3602C285.074 35.8475 286.396 32.892 289.067 27.4938L288.649 27.9519L288.121 28.4148C287.773 28.7966 287.564 29.0256 287.494 29.102C285.947 30.489 284.82 31.4544 284.113 31.9983C283.402 32.4689 282.7 32.3886 282.008 31.7575C281.774 31.4739 281.683 31.1108 281.734 30.6682C281.79 30.2989 281.92 29.963 282.125 29.6607C282.334 29.4316 283.001 28.8161 284.126 27.814C284.687 27.2764 285.213 26.7769 285.704 26.3156C286.335 25.7016 286.965 25.0876 287.596 24.4736C288.644 23.4014 289.826 22.0667 291.143 20.4693L291.874 19.6675L292.495 18.8704C292.979 18.2627 293.397 17.8045 293.749 17.4959C295.208 15.8191 296.359 15.3298 297.201 16.0279C297.812 16.5157 297.956 17.2068 297.633 18.1014C297.377 18.8463 296.107 21.3958 293.826 25.7499C299.49 20.0041 304.254 16.8655 308.119 16.3341C312.288 16.01 313.413 18.7146 311.493 24.4479C316.049 20.0704 320.495 17.1655 324.829 15.7334C328.299 14.6316 330.869 14.6323 332.538 15.7357C334.512 17.0463 334.541 19.8709 332.627 24.2094C332.029 25.4826 331.088 27.2475 329.804 29.504L329.1 30.8551L328.391 32.0964C327.917 32.9239 327.549 33.6369 327.285 34.2353L326.889 35.1329C326.756 35.4321 326.696 35.6916 326.707 35.9113C326.802 36.3477 327.463 36.3562 328.69 35.937C330.207 35.4321 332.072 34.5454 334.286 33.2769C335.143 32.8 336.036 32.2849 336.963 31.7317C337.6 31.2642 338.275 30.7951 338.986 30.3245C341.397 28.6071 343.516 26.9023 345.341 25.2099C345.763 24.8249 346.268 24.6566 346.858 24.7049C347.371 24.6831 347.746 24.8507 347.984 25.2075ZM382.676 23.7317C383.225 24.4423 383.081 25.2558 382.246 26.1721L381.509 26.8641L380.662 27.5607C379.959 28.1778 379.288 28.7201 378.65 29.1876C373.64 33.2908 368.238 34.6583 362.443 33.2901C358.144 36.9227 354.302 37.9302 350.918 36.3126C347.538 34.7682 346.419 31.4395 347.562 26.3265L346.402 27.3667L343.862 29.4565C343.576 29.6154 343.25 29.7027 342.884 29.7183C342.44 29.6637 342.065 29.4962 341.757 29.2157C341.523 28.9321 341.432 28.569 341.483 28.1264C341.539 27.7571 341.669 27.4212 341.874 27.1189C342.087 26.9631 342.367 26.6942 342.715 26.3124L343.348 25.7351L343.98 25.1577C345.244 24.0029 346.505 22.7749 347.763 21.4736L351.524 17.3502C352.297 16.6567 353.03 16.6255 353.722 17.2566C355.783 12.9119 358.952 10.1714 363.228 9.03538C367.72 7.81671 370.482 9.49743 371.516 14.0775C372.28 17.6415 371.196 21.7245 368.267 26.3264C367.178 28.0609 366.215 29.3863 365.379 30.3027C366.859 30.5333 368.398 30.4678 369.995 30.1063C372.098 29.5764 374.211 28.4957 376.333 26.8641C377.744 25.7031 378.977 24.6597 380.033 23.734C380.454 23.3491 380.96 23.1808 381.55 23.2291C382.063 23.2073 382.438 23.3748 382.676 23.7317ZM360.94 29.6107C363.667 26.8524 365.642 23.7224 366.864 20.2207C368.155 16.6426 368.043 14.3721 366.527 13.409L366.302 13.3085L365.962 13.1028C365.592 13.0451 365.185 12.989 364.742 12.9345C361.95 12.9064 359.633 14.2895 357.788 17.0837C355.874 19.9542 355.577 22.8661 356.898 25.8192C357.717 27.5459 359.065 28.8097 360.94 29.6107ZM353.761 33.6594C355.223 33.5238 356.734 32.9091 358.295 31.8151C356.93 30.919 355.817 29.9388 354.956 28.8744C353.306 26.6693 352.529 24.3169 352.625 21.8173C350.678 25.4966 349.984 28.5355 350.543 30.9338C351.084 32.966 352.156 33.8745 353.761 33.6594ZM422.583 22.034C423.133 22.7446 422.989 23.5581 422.153 24.4744L421.307 25.171L420.356 25.9822C419.582 26.6756 418.878 27.2928 418.244 27.8335L417.502 28.4156L416.656 29.1122L414.847 30.4002C413.282 31.4209 411.781 32.2554 410.345 32.9037C406.468 34.6834 402.669 35.0652 398.948 34.0492C395.404 36.6221 392.443 37.6288 390.066 37.0693C388.803 36.7561 387.889 36.0977 387.326 35.0941C386.839 34.1606 386.827 33.1702 387.289 32.123C388.412 29.5797 391.458 28.8262 396.428 29.8626C397.018 29.9109 397.723 30.0644 398.544 30.3231C401.498 27.7019 403.734 24.6708 405.253 21.2299C406.772 17.789 406.575 16.0358 404.663 15.9703C398.798 16.1464 392.153 21.3468 384.729 31.5713C380.211 44.1678 376.272 54.3542 372.912 62.1305C368.235 72.9722 364.985 78.5419 363.165 78.8395L362.505 78.8676C361.095 78.5606 361.356 74.9163 363.287 67.9347C368.243 50.8424 374.796 37.0951 382.946 26.6928L383.727 24.6778L384.405 22.7774L384.504 22.553L384.493 22.3332C383.096 23.7872 381.835 25.0152 380.71 26.0173C379.937 26.7107 379.161 27.3676 378.384 27.9878C378.099 28.1468 377.772 28.2341 377.406 28.2497C376.963 28.1951 376.588 28.0276 376.28 27.7471C376.046 27.4635 375.954 27.1004 376.006 26.6578C376.061 26.2884 376.191 25.9526 376.397 25.6503C376.606 25.4212 377.308 24.7674 378.502 23.689C379.063 23.1514 379.624 22.6138 380.185 22.0761C380.885 21.3857 381.585 20.6954 382.285 20.005C383.894 18.3952 385.757 15.9672 387.873 12.7211C388.423 11.9637 389.113 11.8243 389.944 12.3027C390.776 12.7811 391.028 13.431 390.702 14.2522L390.613 14.6964L390.415 15.1452C390.294 15.6641 390.169 16.1098 390.041 16.4823C389.593 17.8225 389.142 19.0895 388.687 20.2832C392.473 16.6724 396.131 14.1681 399.659 12.7702C402.898 11.458 405.496 11.2741 407.451 12.2185C409.334 13.166 410.158 15.0026 409.926 17.7282C409.631 20.6766 408.002 24.1222 405.04 28.065C404.285 29.1247 403.451 30.0776 402.538 30.9238C407.147 30.581 411.608 28.7397 415.922 25.4001C417.197 24.4651 418.537 23.3438 419.94 22.0363C420.362 21.6514 420.868 21.4831 421.457 21.5314C421.97 21.5096 422.346 21.6771 422.583 22.034ZM365.34 71.5907C367.823 66.861 371.53 57.9322 376.462 44.8044C371.213 54.496 367.506 63.4248 365.34 71.5907ZM391.893 33.9089C392.838 33.7219 393.741 33.4266 394.602 33.023C393.862 32.9076 393.272 32.8593 392.833 32.878L392.173 32.9061L391.41 33.0487C390.754 33.15 390.36 33.3502 390.228 33.6494C390.305 33.7196 390.528 33.7835 390.898 33.8411C391.268 33.8988 391.6 33.9214 391.893 33.9089ZM462.914 20.3183C463.463 21.0289 463.32 21.8424 462.484 22.7587C457.092 28.0525 451.861 31.3945 446.79 32.7846C441.58 34.3274 439.302 32.8095 439.957 28.231C436.578 31.1639 433.32 32.8438 430.184 33.2708C426.755 33.7103 424.332 32.9693 422.916 31.0478C421.653 29.2666 421.464 26.9259 422.349 24.0257C421.297 25.0246 420.415 25.7594 419.704 26.23C419.419 26.389 419.092 26.4763 418.726 26.4919C418.356 26.4342 418.017 26.2651 417.71 25.9846C417.402 25.7041 417.274 25.3425 417.326 24.9C417.381 24.5306 417.548 24.1932 417.827 23.8878C418.036 23.6587 418.42 23.2753 418.981 22.7377L419.399 22.2795L419.822 21.9312C420.171 21.5494 420.521 21.2043 420.873 20.8957C421.016 20.8162 421.193 20.6986 421.406 20.5427C421.615 20.3136 421.86 20.083 422.143 19.8508C422.92 19.2306 423.625 18.6501 424.259 18.1093C426.169 16.6335 427.409 15.7367 427.981 15.4187C431.833 13.1263 435.249 11.6965 438.232 11.1293C441.067 10.5682 443.888 10.4483 446.694 10.7693C447.727 10.8721 448.232 11.4378 448.21 12.4664C448.117 13.5712 447.556 14.1089 446.527 14.0793C441.457 14.0014 436.537 15.4585 431.765 18.4506C428.58 20.8614 426.674 23.1444 426.046 25.2997C425.481 27.2321 426.057 28.492 427.775 29.0795C429.566 29.6639 431.857 29.2362 434.649 27.7962C437.94 26.0415 441.175 23.1514 444.353 19.1261C445.916 16.5641 447.492 14.2951 449.083 12.3191C449.78 11.5555 450.547 11.4861 451.386 12.111C452.151 12.7391 452.26 13.4684 451.714 14.299L451.615 14.5234L451.516 14.7478C450.761 15.8075 449.67 17.5054 448.243 19.8414C446.549 22.7026 445.267 24.9958 444.398 26.7209C443.136 29.4169 443.698 30.3839 446.083 29.6218C447.025 29.3616 448.139 28.8738 449.425 28.1585C450.425 27.6022 451.424 27.0092 452.421 26.3796C453.846 25.5116 455.334 24.4207 456.885 23.107C457.522 22.6395 458.158 22.1353 458.792 21.5946C459.287 21.2065 459.78 20.7819 460.271 20.3206C460.693 19.9357 461.162 19.7689 461.678 19.8204C462.191 19.7985 462.603 19.9645 462.914 20.3183ZM469.546 25.1006C470.703 26.2258 470.828 28.0187 469.922 30.4794C469.595 31.3006 469.164 32.2364 468.629 33.2868L468.326 33.8502L468.018 34.3036C467.816 34.6792 467.682 34.9418 467.616 35.0914C467.077 36.0685 466.315 36.2477 465.33 35.6291C464.349 35.0836 464.128 34.3223 464.667 33.3452L465.382 32.2139L465.987 31.0871C466.53 30.1833 466.818 29.3269 466.851 28.5181C466.848 28.4449 466.807 28.3732 466.731 28.3031L466.5 28.0927C465.497 27.1078 465.485 26.1175 466.463 25.1216C467.515 24.1227 468.543 24.1157 469.546 25.1006Z" fill="#E08428" fill-opacity="0.78"/>
</svg>
