<svg width="11" height="10" viewBox="0 0 11 10" fill="none" xmlns="http://www.w3.org/2000/svg">
<path fill-rule="evenodd" clip-rule="evenodd" d="M5.69614 0.877972C5.91369 1.09929 5.91063 1.45506 5.68931 1.67261L2.54795 4.76042H9.79072C10.1011 4.76042 10.3526 5.012 10.3526 5.32234C10.3526 5.63268 10.1011 5.88425 9.79072 5.88425H2.55365L5.68815 8.94752C5.9101 9.16442 5.91419 9.52018 5.69728 9.74213C5.48038 9.96408 5.12462 9.96817 4.90267 9.75126L0.781967 5.72421C0.673984 5.61868 0.613012 5.47414 0.612794 5.32315C0.612575 5.17217 0.673127 5.02745 0.780804 4.9216L4.90151 0.871141C5.12283 0.653594 5.4786 0.656653 5.69614 0.877972Z" fill="#606367"/>
</svg>
