<svg width="3" height="11" viewBox="0 0 3 11" fill="none" xmlns="http://www.w3.org/2000/svg">
<path d="M2.64097 1.83867C2.64097 2.45934 2.13781 2.9625 1.51714 2.9625C0.896465 2.9625 0.393311 2.45934 0.393311 1.83867C0.393311 1.218 0.896465 0.714844 1.51714 0.714844C2.13781 0.714844 2.64097 1.218 2.64097 1.83867Z" fill="#606367"/>
<path d="M2.64097 5.58477C2.64097 6.20544 2.13781 6.70859 1.51714 6.70859C0.896465 6.70859 0.393311 6.20544 0.393311 5.58477C0.393311 4.96409 0.896465 4.46094 1.51714 4.46094C2.13781 4.46094 2.64097 4.96409 2.64097 5.58477Z" fill="#606367"/>
<path d="M2.64097 9.33086C2.64097 9.95153 2.13781 10.4547 1.51714 10.4547C0.896465 10.4547 0.393311 9.95153 0.393311 9.33086C0.393311 8.71019 0.896465 8.20703 1.51714 8.20703C2.13781 8.20703 2.64097 8.71019 2.64097 9.33086Z" fill="#606367"/>
</svg>
