<svg width="23" height="23" viewBox="0 0 23 23" fill="none" xmlns="http://www.w3.org/2000/svg">
<path d="M2.13177 13.6599C1.17451 14.6172 0.636719 15.9155 0.636719 17.2693C0.636719 18.6231 1.17451 19.9214 2.13177 20.8786C3.08904 21.8359 4.38737 22.3737 5.74115 22.3737C7.09492 22.3737 8.39326 21.8359 9.35052 20.8786M12.957 10.0534C13.431 10.5274 13.807 11.0901 14.0636 11.7094C14.3201 12.3287 14.4521 12.9925 14.4521 13.6628C14.4521 14.3331 14.3201 14.9969 14.0636 15.6162C13.807 16.2355 13.431 16.7982 12.957 17.2722L9.3476 20.8816M5.73823 10.0534L2.12885 13.6628M20.8786 9.35052C21.8359 8.39326 22.3737 7.09492 22.3737 5.74115C22.3737 4.38737 21.8359 3.08904 20.8786 2.13177C19.9214 1.17451 18.6231 0.636719 17.2693 0.636719C15.9155 0.636719 14.6172 1.17451 13.6599 2.13177M10.0564 12.9584C9.58233 12.4845 9.20632 11.9218 8.94978 11.3025C8.69324 10.6832 8.5612 10.0194 8.5612 9.34906C8.5612 8.67873 8.69324 8.01496 8.94978 7.39566C9.20632 6.77636 9.58233 6.21366 10.0564 5.73969L13.6643 2.13031M17.2722 12.9584L20.8816 9.34906" stroke="#1D1B1A" stroke-opacity="0.3" stroke-linecap="round" stroke-linejoin="round"/>
</svg>
