<svg width="7" height="9" viewBox="0 0 7 9" fill="none" xmlns="http://www.w3.org/2000/svg">
<path fill-rule="evenodd" clip-rule="evenodd" d="M3.40166 0.763672C2.3672 0.763672 1.52861 1.60226 1.52861 2.63672V3.38594H1.154C0.740222 3.38594 0.404785 3.72137 0.404785 4.13516V7.88125C0.404785 8.29503 0.740222 8.63047 1.154 8.63047H5.64932C6.0631 8.63047 6.39853 8.29503 6.39853 7.88125V4.13516C6.39853 3.72137 6.0631 3.38594 5.64932 3.38594H5.27471V2.63672C5.27471 1.60226 4.43611 0.763672 3.40166 0.763672ZM4.52549 3.38594V2.63672C4.52549 2.01605 4.02233 1.51289 3.40166 1.51289C2.78099 1.51289 2.27783 2.01605 2.27783 2.63672V3.38594H4.52549Z" fill="#606367"/>
</svg>
