<svg width="11" height="11" viewBox="0 0 11 11" fill="none" xmlns="http://www.w3.org/2000/svg">
<path d="M1.68682 5.50981C1.68682 3.4409 3.364 1.76372 5.43291 1.76372C6.56218 1.76372 7.57525 2.26323 8.26256 3.05477L6.55674 4.7606H10.6774V0.639893L9.05865 2.25868C8.16752 1.26558 6.87351 0.639893 5.43291 0.639893C2.74333 0.639893 0.562988 2.82023 0.562988 5.50981C0.562988 8.1994 2.74333 10.3797 5.43291 10.3797C7.3645 10.3797 9.03233 9.25513 9.81939 7.62748C9.95449 7.34809 9.83753 7.01209 9.55814 6.87699C9.27875 6.74189 8.94274 6.85886 8.80765 7.13824C8.20108 8.39263 6.91727 9.25591 5.43291 9.25591C3.364 9.25591 1.68682 7.57872 1.68682 5.50981Z" fill="#606367"/>
</svg>
