<svg width="21" height="20" viewBox="0 0 21 20" fill="none" xmlns="http://www.w3.org/2000/svg">
<path d="M19.77 17.1034L19.1128 13.1648C18.9522 12.2035 18.4164 11.3453 17.6232 10.7789C16.8299 10.2126 15.8442 9.9845 14.8828 10.1448L11.7814 10.6619L10.8057 4.81908C10.7308 4.37325 10.482 3.97537 10.114 3.71286C9.74595 3.45035 9.28875 3.34469 8.84284 3.41908C7.91427 3.57337 7.2857 4.45194 7.44284 5.38194L8.71998 13.0391L8.20141 13.2291C7.81814 13.3694 7.47598 13.6032 7.20603 13.9093C6.93608 14.2155 6.74689 14.5842 6.65563 14.982C6.56437 15.3798 6.57394 15.7941 6.68348 16.1873C6.79301 16.5805 6.99904 16.94 7.28284 17.2334L7.5457 17.5048L8.90855 18.9162M3.01569 0.914795L1.22998 2.70051M1.22998 2.70051L3.01569 4.48622M1.22998 2.70051H5.5157M15.1586 0.914795L16.9443 2.70051M16.9443 2.70051L15.1586 4.48622M16.9443 2.70051H12.6586" stroke="#F5F5F5" stroke-linecap="round" stroke-linejoin="round"/>
</svg>
