<svg width="20" height="20" viewBox="0 0 20 20" fill="none" xmlns="http://www.w3.org/2000/svg">
<path d="M19.27 16.9215L18.6128 12.9829C18.4522 12.0216 17.9164 11.1634 17.1232 10.597C16.3299 10.0307 15.3442 9.80261 14.3828 9.96291L11.2814 10.4801L10.3057 4.6372C10.2308 4.19136 9.98205 3.79349 9.614 3.53098C9.24595 3.26847 8.78875 3.1628 8.34284 3.2372C7.41427 3.39148 6.7857 4.27005 6.94284 5.20005L8.21998 12.8572L7.70141 13.0472C7.31814 13.1875 6.97598 13.4213 6.70603 13.7275C6.43608 14.0336 6.24689 14.4023 6.15563 14.8001C6.06437 15.1979 6.07394 15.6122 6.18348 16.0054C6.29301 16.3986 6.49904 16.7582 6.78284 17.0515L7.0457 17.3229L8.40855 18.7343M2.51569 0.73291L0.72998 2.51862M0.72998 2.51862L2.51569 4.30434M0.72998 2.51862H5.0157M14.6586 0.73291L16.4443 2.51862M16.4443 2.51862L14.6586 4.30434M16.4443 2.51862H12.1586" stroke="black" stroke-linecap="round" stroke-linejoin="round"/>
</svg>
