<svg width="35" height="35" viewBox="0 0 35 35" fill="none" xmlns="http://www.w3.org/2000/svg">
<path d="M11.666 26.2507H8.10185C6.72648 26.2507 5.40744 25.7043 4.43491 24.7318C3.46238 23.7592 2.91602 22.4402 2.91602 21.0648V17.5007C2.91602 16.7271 3.22331 15.9852 3.77029 15.4383C4.31727 14.8913 5.05913 14.584 5.83268 14.584C6.60623 14.584 7.3481 14.8913 7.89508 15.4383C8.44206 15.9852 8.74935 16.7271 8.74935 17.5007V19.2507C8.74935 19.5601 8.87226 19.8568 9.09106 20.0756C9.30985 20.2944 9.6066 20.4173 9.91602 20.4173H25.0827C25.3921 20.4173 25.6888 20.2944 25.9076 20.0756C26.1264 19.8568 26.2493 19.5601 26.2493 19.2507V17.5007C26.2493 16.7271 26.5566 15.9852 27.1036 15.4383C27.6506 14.8913 28.3925 14.584 29.166 14.584C29.9396 14.584 30.6814 14.8913 31.2284 15.4383C31.7754 15.9852 32.0827 16.7271 32.0827 17.5007V21.0648C32.0827 22.4402 31.5363 23.7592 30.5638 24.7318C29.5913 25.7043 28.2722 26.2507 26.8968 26.2507H17.4993" stroke="#1D1B1A" stroke-opacity="0.3" stroke-width="1.5" stroke-linecap="round"/>
<path d="M21.8747 7.29199C23.2309 7.29199 23.9076 7.29199 24.4705 7.40428C25.6022 7.62933 26.6417 8.18492 27.4575 9.00079C28.2734 9.81667 28.829 10.8562 29.0541 11.9878C29.1663 12.5507 29.1663 13.2274 29.1663 14.5837M5.83301 14.5837C5.83301 13.2274 5.83301 12.5507 5.9453 11.9878C6.17035 10.8562 6.72594 9.81667 7.54181 9.00079C8.35768 8.18492 9.39718 7.62933 10.5288 7.40428C11.0918 7.29199 11.7684 7.29199 13.1247 7.29199H16.0413M29.1663 27.7087V26.2503M5.83301 27.7087V26.2503" stroke="#1D1B1A" stroke-opacity="0.3" stroke-width="1.5" stroke-linecap="round"/>
</svg>
