<?xml version="1.0" encoding="utf-8"?><svg viewBox="0 0 502.66 502.66" xmlns="http://www.w3.org/2000/svg" xmlns:xlink="http://www.w3.org/1999/xlink"><style>:root>svg{display:none}:root>svg:target{display:block}</style><svg viewBox="0 0 474 95" id="arch" xmlns="http://www.w3.org/2000/svg"><path d="M47.396 37.995c.549.71.405 1.524-.43 2.44-5.392 5.294-10.624 8.636-15.695 10.026-5.21 1.543-7.487.025-6.832-4.553-3.38 2.932-6.637 4.612-9.774 5.04-3.428.439-5.851-.302-7.268-2.224-1.262-1.78-1.452-4.121-.567-7.022-1.052 1-1.933 1.734-2.644 2.205a2.173 2.173 0 0 1-.979.262 1.933 1.933 0 0 1-1.016-.508c-.307-.28-.435-.642-.384-1.084a1.9 1.9 0 0 1 .501-1.012c.209-.23.594-.613 1.155-1.15l.418-.459.423-.348c.348-.382.698-.727 1.05-1.036.143-.08.32-.197.533-.353.21-.229.455-.46.737-.692.777-.62 1.483-1.2 2.117-1.741 1.91-1.476 3.15-2.373 3.721-2.69 3.852-2.293 7.269-3.723 10.251-4.29a27.34 27.34 0 0 1 8.462-.36c1.033.103 1.539.668 1.516 1.697-.092 1.105-.653 1.642-1.683 1.613-5.07-.078-9.99 1.38-14.762 4.371-3.184 2.411-5.09 4.694-5.719 6.85-.565 1.932.011 3.192 1.729 3.78 1.79.584 4.082.156 6.875-1.284 3.29-1.755 6.525-4.645 9.704-8.67 1.562-2.562 3.139-4.831 4.73-6.807.696-.764 1.464-.833 2.302-.208.765.628.875 1.357.328 2.188l-.099.224-.099.224c-.755 1.06-1.846 2.758-3.272 5.094-1.695 2.861-2.976 5.154-3.846 6.88-1.261 2.696-.7 3.662 1.685 2.9.942-.26 2.056-.748 3.342-1.463 1-.556 2-1.15 2.996-1.779 1.426-.868 2.914-1.959 4.464-3.272a33.074 33.074 0 0 0 1.908-1.513c.495-.388.987-.813 1.479-1.274.421-.385.89-.551 1.407-.5.513-.022.925.144 1.236.498Zm39.682-1.688c.549.71.405 1.524-.43 2.44l-.847.697-.951.811c-.774.694-1.477 1.31-2.112 1.851l-.742.582-.846.697-1.809 1.288c-1.565 1.02-3.066 1.855-4.502 2.503-3.877 1.78-7.676 2.162-11.397 1.146-3.544 2.573-6.505 3.58-8.882 3.02-1.263-.313-2.177-.971-2.74-1.975-.487-.934-.5-1.924-.037-2.971 1.123-2.544 4.17-3.297 9.14-2.26.59.048 1.294.201 2.115.46 2.954-2.621 5.19-5.652 6.71-9.093 1.518-3.441 1.321-5.194-.59-5.26-5.866.176-12.51 5.377-19.935 15.601-4.518 12.597-8.456 22.783-11.817 30.56-4.677 10.841-7.927 16.41-9.747 16.708l-.66.028c-1.41-.307-1.15-3.95.782-10.933 4.956-17.092 11.51-30.84 19.659-41.241l.782-2.015.677-1.9.099-.225-.011-.22c-1.397 1.454-2.658 2.682-3.783 3.684a53.184 53.184 0 0 1-2.325 1.97 2.175 2.175 0 0 1-.979.263 1.986 1.986 0 0 1-1.126-.503c-.234-.284-.325-.647-.274-1.09a2.4 2.4 0 0 1 .39-1.007c.21-.229.912-.883 2.107-1.961l1.682-1.613 2.1-2.071c1.61-1.61 3.472-4.038 5.588-7.284.55-.757 1.24-.897 2.072-.418.83.478 1.083 1.128.757 1.949l-.088.444-.199.449c-.12.519-.246.965-.374 1.337a99.26 99.26 0 0 1-1.354 3.801c3.786-3.61 7.444-6.115 10.972-7.513 3.24-1.312 5.837-1.496 7.792-.552 1.883.948 2.708 2.784 2.475 5.51-.295 2.949-1.924 6.394-4.886 10.337a18.617 18.617 0 0 1-2.502 2.859c4.609-.343 9.07-2.184 13.384-5.524 1.275-.935 2.615-2.056 4.019-3.364.421-.385.927-.553 1.516-.505.513-.022.889.146 1.127.503ZM29.834 85.863c2.483-4.73 6.19-13.658 11.122-26.786C35.708 68.77 32 77.697 29.834 85.864Zm26.553-37.681a11.718 11.718 0 0 0 2.71-.886c-.74-.115-1.33-.164-1.77-.145l-.66.028-.763.142c-.656.102-1.05.302-1.182.601.077.07.3.134.67.192.37.058.702.08.995.068Zm57.25-2.546c.227.137.302.17.225.1-.073.004-.148-.03-.225-.1Zm2.102-22.109c1.806-.59 3.063-.424 3.769.5.706.925.614 2.03-.277 3.315-.616.907-1.173 1.518-1.671 1.833-.781.547-1.406.537-1.874-.03-.308-.281-.298-.832.028-1.653-3.448 1.541-7.664 4.62-12.649 9.236 1.801 2.272 4.036 4.415 6.705 6.43a59.033 59.033 0 0 0 2.73 1.756c.304.207.569.38.796.516l.341.206.225.1c.835.552.981 1.28.438 2.184-.542.904-1.266 1.118-2.171.643-4.526-2.45-8.387-5.552-11.582-9.306-.7.69-1.787 1.727-3.26 3.111l-1.788 1.728-1.891 1.842a565.389 565.389 0 0 1-9.369 8.766c-.352.308-.632.577-.841.806l-1.056.926c-.773.693-1.367 1.306-1.781 1.837-.418.458-.885.662-1.402.61a1.753 1.753 0 0 1-1.131-.612c-.315-.427-.483-.86-.505-1.3.048-.516.321-.931.82-1.246 2.561-1.65 5.8-4.467 9.714-8.45a555.002 555.002 0 0 0 5.13-5.393l5.13-5.393c-1.591-2.501-2.726-4.655-3.402-6.46-.279.305-1.434 1.455-3.464 3.45-2.031 1.994-3.222 3.146-3.574 3.454-1.54 1.534-2.912 2.73-4.118 3.589-.213.155-.539.243-.978.261a1.934 1.934 0 0 1-1.017-.507c-.234-.284-.325-.647-.274-1.09.052-.442.182-.778.391-1.007.21-.229.874-.881 1.996-1.956a18.681 18.681 0 0 0 1.683-1.613l2.1-2.071c1.602-1.757 4.093-4.835 7.473-9.236.763-.913 1.604-.986 2.523-.217.915.695 1.03 1.534.344 2.517.36 2.847 1.378 5.593 3.05 8.238 5.528-5.52 10.424-8.958 14.689-10.314Zm45.301 9.633c.549.711.405 1.525-.43 2.44a37.99 37.99 0 0 1-3.382 2.897c-7.271 5.888-12.922 8.917-16.951 9.089-4.254.107-5.004-3.2-2.253-9.923l-1.27 1.045c-8.18 6.806-13.99 9.586-17.429 8.338-3.062-1.044-3.6-4.508-1.615-10.39a29.696 29.696 0 0 1-1.687 1.502l-.633.578-.637.467a2.176 2.176 0 0 1-.979.262 1.988 1.988 0 0 1-1.126-.503c-.234-.283-.325-.646-.274-1.089.055-.37.186-.705.391-1.008.209-.229.839-.843 1.891-1.842.491-.46.984-.886 1.479-1.274a42.91 42.91 0 0 1 1.782-1.837 206.604 206.604 0 0 0 4.184-4.472 148.88 148.88 0 0 1 1.765-2.167l.946-.92.726-.912c.766-.84 1.535-.873 2.308-.098.842.698.917 1.465.224 2.302l-.209.23-.314.343a64.446 64.446 0 0 0-2.474 3.408 37.015 37.015 0 0 0-2.641 4.516c-2.01 3.902-2.772 7.054-2.286 9.456.245.503 1.093.577 2.544.222 1.59-.508 3.488-1.47 5.694-2.885 5.827-3.918 12.018-10.126 18.574-18.626.755-1.06 1.702-1.21 2.841-.45 1.139.758 1.297 1.742.476 2.951-7.52 11.257-10.658 17.592-9.414 19.007.392.498 2.088-.088 5.09-1.758a60.642 60.642 0 0 0 3.529-2.131c1.07-.633 1.887-1.182 2.452-1.646 1.564-1.02 3.756-2.729 6.575-5.124.421-.385.89-.552 1.407-.5.513-.022.888.145 1.126.502Zm60.271-2.564c.549.711.405 1.524-.43 2.44l-4.124 3.48a62.745 62.745 0 0 1-4.15 2.928c-1.917 1.33-3.735 2.434-5.453 3.315-4.654 2.4-7.893 2.978-9.716 1.734-1.216-.829-1.438-2.36-.668-4.595.25-.892.743-2.05 1.481-3.476l.897-1.91 1.105-2.14c1.134-2.323 1.957-4.23 2.471-5.72.195-.521.354-1.005.479-1.45.132-.3.195-.523.187-.67-3.535-.216-7.983 1.882-13.345 6.294-2.045 1.701-4.149 3.7-6.312 5.993a68.482 68.482 0 0 0-4.79 5.598c-.689.91-1.489 1.055-2.401.433-.985-.619-1.107-1.604-.366-2.957l.203-.339.407-.678c.268-.525.572-1.052.913-1.58a383.072 383.072 0 0 1 2.212-4.278c1.999-4.122 2.856-6.837 2.571-8.146-1.179-.097-2.872.562-5.078 1.977-1.708 1.1-3.616 2.613-5.723 4.538-1.613 1.536-3.36 3.335-5.24 5.397a37.325 37.325 0 0 0-2.299 2.52l-1.776 1.947-1.556 1.938c-.418.458-.968.481-1.649.07-.751-.335-.996-.838-.735-1.51-.025-.513 1.297-3.468 3.967-8.866l-.418.458-.527.463-.627.687c-1.547 1.387-2.674 2.352-3.381 2.896-.711.47-1.413.39-2.105-.24-.234-.284-.325-.647-.274-1.09.055-.37.186-.705.391-1.008.209-.229.876-.844 2.001-1.846.561-.538 1.087-1.037 1.578-1.499l1.892-1.842c1.048-1.072 2.23-2.406 3.546-4.004l.732-.802.621-.797c.484-.608.902-1.066 1.254-1.374 1.459-1.677 2.609-2.166 3.451-1.468.612.487.756 1.179.433 2.073-.257.745-1.526 3.295-3.807 7.649 5.663-5.746 10.427-8.885 14.293-9.416 4.169-.324 5.293 2.38 3.374 8.114 4.556-4.378 9.001-7.283 13.336-8.715 3.47-1.102 6.039-1.1 7.709.003 1.974 1.31 2.003 4.135.088 8.473-.598 1.273-1.538 3.038-2.822 5.295l-.704 1.351-.71 1.241c-.473.828-.841 1.54-1.106 2.14l-.396.897c-.132.299-.192.558-.182.778.095.437.757.445 1.984.026 1.517-.505 3.382-1.392 5.596-2.66a103.22 103.22 0 0 0 2.676-1.545 52.584 52.584 0 0 1 2.023-1.408c2.412-1.717 4.53-3.422 6.356-5.114.421-.385.927-.553 1.517-.505.513-.022.888.145 1.126.502Zm34.472-1.466c.475.714.295 1.529-.54 2.445-1.118 1.149-2.988 2.696-5.608 4.642l-.852.587-.957.701a23.598 23.598 0 0 1-2.023 1.408c-1.781 1.103-3.463 1.982-5.046 2.637-4.382 1.947-8.72 2.572-13.013 1.874-3.036-.531-5.274-1.977-6.712-4.338-1.204-2.078-1.492-4.194-.864-6.35-1.056.927-1.902 1.623-2.54 2.09-.212.156-.539.244-.978.262a1.93 1.93 0 0 1-1.016-.507c-.235-.284-.326-.647-.274-1.09.051-.442.181-.778.39-1.007a28.74 28.74 0 0 1 1.155-1.15l.418-.458.423-.348c.348-.382.699-.727 1.05-1.036.143-.08.568-.39 1.276-.935l.429-.238.527-.463 1.171-.82c2.021-3.683 4.774-6.663 8.259-8.94 3.764-2.582 7.316-3.504 10.657-2.765 1.483.304 2.545.993 3.185 2.067 1.504 2.21-.649 4.688-6.461 7.43a45.35 45.35 0 0 1-3.452 1.469l-1.725.734-1.622.62c-2.521.987-4.029 1.675-4.523 2.063-1.405 2.776-1.734 5.028-.988 6.758.669 1.66 2.114 2.663 4.333 3.009 5.037.886 10.747-.935 17.131-5.463 1.778-1.177 3.826-2.805 6.147-4.886.421-.385.89-.551 1.407-.5.513-.022.925.144 1.236.498Zm-14.698-9.944-.561-.197c-.22.01-.478-.016-.774-.077a12.9 12.9 0 0 0-2.298.318c-2.242.683-4.659 2.29-7.25 4.823l-.836.916a90.9 90.9 0 0 0 5.606-2.44c2.294-1.126 4.295-2.238 6.003-3.338l.11-.005Zm18.495 8.241-.733 3.004c2.658-2.682 5.793-5.348 9.407-7.997 1.818-1.839 3.773-3.133 5.865-3.883 1.305-.349 2.204.017 2.698 1.097.494 1.08.205 1.936-.865 2.569-2.349 1.494-4.441 2.978-6.278 4.45-1.25 1.448-2.267 3.143-3.052 5.084-.925 2.095-1.248 3.723-.971 4.886.742 3.125 5.087 1.912 13.037-3.637a111.412 111.412 0 0 0 6.569-5.234c.422-.385.891-.552 1.407-.5.513-.022.925.144 1.236.498.476.713.296 1.528-.54 2.445-1.121 1.075-2.565 2.31-4.332 3.707a91.24 91.24 0 0 1-3.716 2.8c-1.635 1.098-3.205 2.008-4.711 2.733-3.793 1.996-6.81 2.602-9.051 1.816-3.135-1.04-4.191-3.822-3.166-8.342-2.173 2.074-4.479 4.447-6.917 7.12-.693.837-1.53.983-2.511.437-.982-.545-1.314-1.339-.999-2.38l.837-3.118.948-3.123c-.774.694-1.373 1.196-1.798 1.508-.711.47-1.413.39-2.105-.241-.234-.284-.325-.647-.274-1.09a1.9 1.9 0 0 1 .501-1.012c.209-.229.874-.88 1.996-1.956a18.606 18.606 0 0 0 1.682-1.613l2.101-2.071a4313.543 4313.543 0 0 1 5.13-14.31c3.613-1.182 4.819-.536 3.62 1.937l-5.015 14.416Zm88.404-2.22c.549.711.406 1.525-.43 2.441l-4.123 3.478a63.087 63.087 0 0 1-4.151 2.93c-1.917 1.329-3.734 2.434-5.453 3.314-4.654 2.4-7.892 2.978-9.716 1.735-1.216-.83-1.438-2.361-.667-4.596.249-.892.743-2.05 1.48-3.476l.897-1.91 1.106-2.139c1.133-2.323 1.957-4.23 2.47-5.72.195-.522.355-1.006.479-1.452.132-.299.195-.522.188-.668-3.535-.217-7.984 1.88-13.346 6.293-2.045 1.701-4.149 3.7-6.312 5.993a68.27 68.27 0 0 0-4.789 5.599c-.69.91-1.49 1.054-2.402.432-.985-.618-1.107-1.604-.366-2.957l.203-.339.407-.678c.268-.525.572-1.052.914-1.58a383.27 383.27 0 0 1 2.211-4.278c1.999-4.122 2.856-6.837 2.571-8.146-1.179-.097-2.872.562-5.078 1.977-1.708 1.1-3.616 2.613-5.723 4.538-1.613 1.536-3.36 3.335-5.24 5.397a37.325 37.325 0 0 0-2.299 2.52l-1.776 1.947-1.556 1.938c-.418.458-.967.482-1.648.07-.751-.335-.996-.838-.736-1.51-.025-.513 1.297-3.468 3.968-8.866l-.418.458-.528.463-.627.687c-1.547 1.387-2.674 2.352-3.381 2.896-.711.47-1.413.39-2.105-.24-.234-.284-.325-.647-.274-1.09a2.41 2.41 0 0 1 .391-1.007c.209-.23.876-.845 2.001-1.847.561-.538 1.087-1.037 1.578-1.498l1.892-1.842c1.048-1.073 2.23-2.407 3.547-4.005l.731-.802.621-.797c.484-.607.902-1.066 1.254-1.374 1.459-1.677 2.61-2.166 3.452-1.468.611.488.755 1.179.432 2.073-.256.745-1.526 3.295-3.807 7.649 5.664-5.746 10.428-8.884 14.293-9.416 4.169-.324 5.294 2.38 3.374 8.114 4.556-4.378 9.002-7.282 13.336-8.715 3.47-1.101 6.04-1.1 7.709.003 1.974 1.31 2.003 4.135.089 8.473-.598 1.274-1.539 3.038-2.823 5.295l-.704 1.351-.709 1.241c-.474.828-.842 1.54-1.106 2.14l-.396.897c-.133.3-.193.559-.182.778.095.437.756.445 1.983.026 1.517-.505 3.382-1.392 5.596-2.66.857-.477 1.75-.992 2.677-1.545a50.962 50.962 0 0 1 2.023-1.407c2.411-1.718 4.53-3.423 6.355-5.115.422-.385.927-.553 1.517-.505.513-.022.888.146 1.126.503Zm34.692-1.475c.549.71.405 1.524-.43 2.44l-.737.692-.847.697a29.537 29.537 0 0 1-2.012 1.627c-5.01 4.103-10.412 5.47-16.207 4.102-4.299 3.633-8.141 4.64-11.525 3.023-3.38-1.545-4.499-4.874-3.356-9.987l-1.16 1.04-2.54 2.09a2.175 2.175 0 0 1-.978.262 1.988 1.988 0 0 1-1.127-.502c-.234-.284-.325-.647-.274-1.09.056-.369.186-.705.391-1.007.213-.156.493-.425.841-.807l.633-.577.632-.577a85.166 85.166 0 0 0 3.783-3.684l3.761-4.124c.773-.693 1.506-.725 2.198-.093 2.061-4.345 5.23-7.086 9.506-8.222 4.492-1.218 7.254.462 8.288 5.043.764 3.564-.32 7.646-3.249 12.248-1.089 1.735-2.052 3.06-2.888 3.977 1.48.23 3.019.165 4.616-.197 2.103-.53 4.216-1.61 6.338-3.242a157.052 157.052 0 0 0 3.7-3.13c.421-.385.927-.553 1.517-.505.513-.022.888.146 1.126.503ZM360.94 29.61c2.727-2.759 4.702-5.889 5.924-9.39 1.291-3.578 1.179-5.849-.337-6.812l-.225-.1-.34-.206c-.37-.058-.777-.114-1.22-.168-2.792-.029-5.109 1.354-6.954 4.149-1.914 2.87-2.211 5.782-.89 8.735.819 1.727 2.167 2.99 4.042 3.792Zm-7.179 4.048c1.462-.135 2.973-.75 4.534-1.844-1.365-.896-2.478-1.876-3.339-2.94-1.65-2.206-2.427-4.558-2.331-7.058-1.947 3.68-2.641 6.718-2.082 9.117.541 2.032 1.613 2.94 3.218 2.725Zm68.822-11.625c.55.71.406 1.524-.43 2.44l-.846.697-.951.811a119.3 119.3 0 0 1-2.112 1.852l-.742.582-.846.696-1.809 1.288c-1.565 1.02-3.066 1.855-4.502 2.504-3.877 1.78-7.676 2.161-11.397 1.145-3.544 2.573-6.505 3.58-8.882 3.02-1.263-.313-2.177-.971-2.74-1.975-.487-.933-.499-1.924-.037-2.971 1.123-2.543 4.169-3.297 9.139-2.26.59.048 1.295.201 2.116.46 2.954-2.621 5.19-5.652 6.709-9.093 1.519-3.441 1.322-5.194-.59-5.26-5.865.176-12.51 5.377-19.934 15.601-4.518 12.597-8.457 22.783-11.817 30.56-4.677 10.841-7.927 16.41-9.747 16.709l-.66.028c-1.41-.307-1.149-3.952.782-10.933 4.956-17.093 11.509-30.84 19.659-41.242l.781-2.015.678-1.9.099-.225-.011-.22c-1.397 1.454-2.658 2.682-3.783 3.684a53.014 53.014 0 0 1-2.326 1.97 2.17 2.17 0 0 1-.978.263 1.988 1.988 0 0 1-1.126-.503c-.234-.284-.326-.647-.274-1.09a2.39 2.39 0 0 1 .391-1.007c.209-.229.911-.883 2.105-1.961l1.683-1.613 2.1-2.071c1.609-1.61 3.472-4.038 5.588-7.284.55-.757 1.24-.897 2.071-.418.832.478 1.084 1.128.758 1.95l-.089.443-.198.45c-.121.518-.246.964-.374 1.336a97.279 97.279 0 0 1-1.354 3.801c3.786-3.61 7.444-6.115 10.972-7.513 3.239-1.312 5.837-1.496 7.792-.551 1.883.947 2.707 2.784 2.475 5.51-.295 2.948-1.924 6.393-4.886 10.336a18.585 18.585 0 0 1-2.502 2.859c4.609-.343 9.07-2.184 13.384-5.524 1.275-.935 2.615-2.056 4.018-3.364.422-.385.928-.553 1.517-.505.513-.021.889.146 1.126.503ZM365.34 71.591c2.483-4.73 6.19-13.659 11.122-26.787-5.249 9.692-8.956 18.62-11.122 26.787Zm26.553-37.682a11.716 11.716 0 0 0 2.709-.886c-.74-.115-1.33-.164-1.769-.145l-.66.028-.763.143c-.656.101-1.05.301-1.182.6.077.07.3.134.67.192.37.058.702.08.995.068Zm71.021-13.59c.549.71.406 1.523-.43 2.44-5.392 5.293-10.623 8.636-15.694 10.026-5.21 1.542-7.488.025-6.833-4.554-3.379 2.933-6.637 4.613-9.773 5.04-3.429.44-5.852-.302-7.268-2.223-1.263-1.781-1.452-4.122-.567-7.022-1.052.999-1.934 1.733-2.645 2.204a2.17 2.17 0 0 1-.978.262 1.93 1.93 0 0 1-1.016-.507c-.308-.28-.436-.642-.384-1.085.055-.37.222-.707.501-1.012.209-.23.593-.613 1.154-1.15l.418-.459.423-.348a13.23 13.23 0 0 1 1.051-1.035c.143-.08.32-.197.533-.353.209-.23.454-.46.737-.692.777-.62 1.482-1.2 2.116-1.742 1.91-1.476 3.15-2.372 3.722-2.69 3.852-2.293 7.268-3.723 10.251-4.29a27.334 27.334 0 0 1 8.462-.36c1.033.103 1.538.669 1.516 1.697-.093 1.105-.654 1.643-1.683 1.613-5.07-.078-9.99 1.38-14.762 4.372-3.185 2.41-5.091 4.693-5.719 6.849-.565 1.932.011 3.192 1.729 3.78 1.791.584 4.082.156 6.874-1.284 3.291-1.755 6.526-4.645 9.704-8.67 1.563-2.562 3.139-4.83 4.73-6.807.697-.764 1.464-.833 2.303-.208.765.628.874 1.357.328 2.188l-.099.224-.099.225c-.755 1.06-1.846 2.757-3.273 5.093-1.694 2.862-2.976 5.155-3.845 6.88-1.262 2.696-.7 3.663 1.685 2.9.942-.26 2.056-.747 3.342-1.462 1-.557 1.999-1.15 2.996-1.78 1.425-.867 2.913-1.958 4.464-3.272a33.352 33.352 0 0 0 1.907-1.512c.495-.389.988-.813 1.479-1.274.422-.385.891-.552 1.407-.5.513-.023.925.143 1.236.497Zm6.632 4.782c1.157 1.125 1.282 2.918.376 5.378a34.067 34.067 0 0 1-1.293 2.808l-.303.563-.308.454c-.202.375-.336.638-.402.787-.539.977-1.301 1.157-2.286.538-.981-.545-1.202-1.307-.663-2.284l.715-1.131.605-1.127c.543-.904.831-1.76.864-2.569-.003-.073-.044-.145-.12-.215l-.231-.21c-1.003-.985-1.015-1.976-.037-2.971 1.052-1 2.08-1.006 3.083-.021Z" fill-opacity=".78"/></svg><svg viewBox="0 0 14 8" id="arr-down" xmlns="http://www.w3.org/2000/svg"><path d="m12.418.452 1.06 1.061L7.7 7.292a.996.996 0 0 1-1.413 0L.508 1.513l1.06-1.06 5.425 5.424L12.418.452Z" fill-opacity=".5"/></svg><svg viewBox="0 0 502.664 502.664" xml:space="preserve" id="icon" xmlns="http://www.w3.org/2000/svg"><path d="M153.821 358.226 0 274.337v-46.463l153.821-83.414v54.574L46.636 250.523l107.185 53.431v54.272zm26.273 29.358L282.103 115.08h32.227L212.084 387.584h-31.99zm168.749-29.358v-54.272l107.164-52.999-107.164-52.59v-53.927l153.821 83.522v46.183l-153.821 84.083z"/></svg></svg>