<svg width="35" height="35" viewBox="0 0 35 35" fill="none" xmlns="http://www.w3.org/2000/svg">
<path fill-rule="evenodd" clip-rule="evenodd" d="M23.2172 18.6655C23.295 18.2873 23.3339 17.8989 23.3339 17.5002C23.334 16.6353 23.1418 15.7811 22.7711 14.9996C22.4005 14.2181 21.8607 13.5288 21.1908 12.9816C20.5209 12.4344 19.7377 12.0431 18.898 11.8359C18.0582 11.6287 17.1829 11.6108 16.3353 11.7836L17.6814 13.1296C18.7783 13.1748 19.8181 13.6307 20.5945 14.4068C21.3709 15.1829 21.8271 16.2226 21.8726 17.3194L23.2172 18.6655ZM13.6987 15.3332C13.2227 16.1664 13.0338 17.1331 13.1613 18.0843C13.2887 19.0354 13.7254 19.9183 14.4039 20.5969C15.0825 21.2754 15.9654 21.7121 16.9165 21.8395C17.8677 21.967 18.8344 21.7781 19.6676 21.3021L20.7264 22.3609C19.6045 23.1059 18.2594 23.4398 16.9193 23.3059C15.5793 23.172 14.3268 22.5785 13.3746 21.6262C12.4223 20.6739 11.8288 19.4215 11.6949 18.0815C11.561 16.7414 11.8949 15.3963 12.6399 14.2744L13.6987 15.3332Z" fill="#1D1B1A" fill-opacity="0.3"/>
<path fill-rule="evenodd" clip-rule="evenodd" d="M23.5581 25.1931L22.4862 24.1227C20.9346 24.9671 19.2487 25.5212 17.5002 25.5212C15.0619 25.5212 12.7431 24.4421 10.7437 23.0042C8.7502 21.5692 7.13582 19.8221 6.12082 18.5912C5.50395 17.8402 5.43978 17.7104 5.43978 17.5004C5.43978 17.2919 5.50395 17.1606 6.12228 16.4096C7.09936 15.2254 8.63061 13.5615 10.5235 12.1585L9.47936 11.1173C7.53978 12.5858 5.9852 14.2819 4.99645 15.4821L4.9104 15.5871C4.42915 16.169 3.98145 16.71 3.98145 17.5004C3.98145 18.2908 4.42915 18.8319 4.9104 19.4137L4.99645 19.5187C6.05374 20.8021 7.75853 22.6527 9.89207 24.1869C12.0212 25.7181 14.636 26.9796 17.5002 26.9796C19.7023 26.9796 21.7585 26.2344 23.5581 25.1931ZM13.4023 8.8525C14.6856 8.34208 16.0623 8.02271 17.5002 8.02271C20.3644 8.02271 22.9806 9.28416 25.1083 10.8154C27.2419 12.3496 28.9467 14.2002 30.0039 15.4835L30.09 15.5885C30.5712 16.1704 31.0189 16.7115 31.0189 17.5019C31.0189 18.2923 30.5712 18.8333 30.09 19.4152L30.0039 19.5202C29.1143 20.6024 28.1478 21.619 27.1121 22.5623L26.0796 21.5298C27.0834 20.6205 28.0193 19.6389 28.8796 18.5927C29.4979 17.8417 29.5606 17.7119 29.5606 17.5019C29.5606 17.2933 29.4979 17.1621 28.8781 16.411C27.8646 15.1802 26.2502 13.4331 24.2552 11.9981C22.2587 10.5587 19.94 9.47958 17.5002 9.47958C16.4881 9.47958 15.495 9.66625 14.5383 9.98708L13.4023 8.8525Z" fill="#1D1B1A" fill-opacity="0.3"/>
<path d="M7.29199 2.91699L30.6253 26.2503" stroke="#1D1B1A" stroke-opacity="0.3"/>
</svg>
