<svg width="22" height="30" viewBox="0 0 22 30" fill="none" xmlns="http://www.w3.org/2000/svg">
<g clip-path="url(#clip0_0_1178)">
<path d="M20.8435 29.5309C20.8435 29.4066 20.7941 29.2874 20.7062 29.1995C20.6183 29.1116 20.4991 29.0622 20.3748 29.0622H3.49977C3.37545 29.0622 3.25622 29.1116 3.16831 29.1995C3.0804 29.2874 3.03102 29.4066 3.03102 29.5309C3.03102 29.6553 3.0804 29.7745 3.16831 29.8624C3.25622 29.9503 3.37545 29.9997 3.49977 29.9997H20.3748C20.4991 29.9997 20.6183 29.9503 20.7062 29.8624C20.7941 29.7745 20.8435 29.6553 20.8435 29.5309ZM1.41289 8.76906C1.02102 9.02968 0.426642 9.82281 0.990079 10.9497C1.45789 11.8844 2.43383 13.0281 3.47164 13.33C3.72109 13.4082 3.98434 13.4322 4.24382 13.4005C4.50329 13.3688 4.75302 13.2821 4.97633 13.1462C6.00664 12.5294 7.22352 11.695 7.73914 11.3369C8.38977 11.6659 9.21102 11.7344 10.0454 11.5197L10.0566 11.5159C10.0079 13.0637 9.48383 14.0303 6.92164 16.4097C4.63789 18.5294 3.2832 21.3137 3.29633 23.8591C3.3057 25.5287 3.91414 26.9622 5.05883 28.0019C5.14513 28.0808 5.25782 28.1246 5.37477 28.1247H18.4998C18.6241 28.1247 18.7433 28.0753 18.8312 27.9874C18.9191 27.8995 18.9685 27.7803 18.9685 27.6559C18.9685 27.5316 18.9191 27.4124 18.8312 27.3245C18.7433 27.2366 18.6241 27.1872 18.4998 27.1872H5.56133C4.69977 26.3387 4.24227 25.1903 4.23477 23.8544C4.22258 21.6025 5.49758 19.0122 7.56008 17.0969C10.2929 14.56 10.9998 13.3581 10.9998 11.2497C10.9998 11.2112 10.9866 11.1775 10.9782 11.1419C11.491 10.8653 11.9345 10.4997 12.2373 10.0572C12.617 9.50406 13.4345 8.08374 12.8279 6.82656C12.8011 6.77115 12.7636 6.72158 12.7176 6.68067C12.6716 6.63975 12.618 6.6083 12.5598 6.58811C12.5017 6.56791 12.4401 6.55936 12.3786 6.56296C12.3172 6.56655 12.257 6.58222 12.2016 6.60906C12.1462 6.63589 12.0967 6.67338 12.0558 6.71938C12.0148 6.76538 11.9834 6.81898 11.9632 6.87713C11.943 6.93529 11.9344 6.99685 11.938 7.0583C11.9416 7.11976 11.9573 7.1799 11.9841 7.23531C12.257 7.80062 12.0629 8.65749 11.4648 9.52749C11.1198 10.03 10.5029 10.4359 9.81383 10.6122C9.11352 10.7912 8.44789 10.7125 7.98383 10.3947C7.90489 10.3406 7.81128 10.312 7.71558 10.3126C7.61989 10.3133 7.52669 10.3432 7.44852 10.3984C7.43164 10.4097 5.78258 11.5712 4.49633 12.3428C4.3835 12.412 4.25692 12.4558 4.12544 12.471C3.99396 12.4862 3.86073 12.4725 3.73508 12.4309C3.00945 12.2191 2.21164 11.2947 1.83008 10.5316C1.52164 9.91468 1.83758 9.62031 1.98102 9.51531C5.21258 6.72437 6.83445 3.82468 6.90102 3.70187C6.93213 3.64521 6.95119 3.58274 6.95699 3.51836C6.9628 3.45399 6.95523 3.38911 6.93477 3.32781C6.7327 2.70181 6.56372 2.06562 6.42852 1.42187C7.40914 2.01249 9.0957 2.83749 10.8516 2.83749C13.2929 2.83749 18.9685 3.74874 18.9685 12.19C18.9685 12.2359 18.9601 16.825 17.1216 21.8716C17.0999 21.9296 17.0898 21.9914 17.0921 22.0533C17.0943 22.1153 17.1089 22.1761 17.1348 22.2324C17.1608 22.2887 17.1976 22.3393 17.2433 22.3813C17.2889 22.4232 17.3424 22.4557 17.4007 22.4769C17.4589 22.498 17.5208 22.5074 17.5827 22.5044C17.6447 22.5015 17.7054 22.4863 17.7614 22.4597C17.8174 22.4332 17.8676 22.3958 17.909 22.3497C17.9505 22.3036 17.9824 22.2497 18.0029 22.1912C19.8976 16.99 19.907 12.3794 19.906 12.1872C19.906 2.64062 12.9751 1.89906 10.8516 1.89906C8.49945 1.89906 6.15289 0.114993 6.13039 0.0962427C6.06031 0.0438145 5.97717 0.011631 5.89005 0.00320006C5.80293 -0.00523088 5.71517 0.0104142 5.63633 0.0484302C5.5579 0.0870766 5.49184 0.146889 5.44562 0.221108C5.3994 0.295327 5.37486 0.380995 5.37477 0.46843C5.37477 1.38812 5.8107 2.87593 5.98039 3.41874C5.58852 4.07312 4.04352 6.49468 1.41289 8.76906Z" fill="#1D1B1A" fill-opacity="0.3"/>
<path d="M16.6109 1.44375C15.11 0.432187 13.4319 0 11 0C10.8757 0 10.7565 0.049386 10.6685 0.137294C10.5806 0.225201 10.5312 0.34443 10.5312 0.46875C10.5312 0.59307 10.5806 0.712299 10.6685 0.800206C10.7565 0.888114 10.8757 0.9375 11 0.9375C13.2313 0.9375 14.7528 1.32094 16.0878 2.22094C18.2572 3.68531 20.8438 6.60281 20.8438 12.1875C20.8438 13.5478 20.8438 15.4106 19.9203 19.1053C19.8934 19.2248 19.9144 19.35 19.9786 19.4542C20.0429 19.5584 20.1454 19.6334 20.2642 19.663C20.383 19.6927 20.5086 19.6746 20.6143 19.6128C20.72 19.551 20.7973 19.4503 20.8297 19.3322C21.7813 15.5269 21.7813 13.5966 21.7813 12.1875C21.7813 6.19125 18.9697 3.03469 16.6109 1.44375Z" fill="#1D1B1A" fill-opacity="0.3"/>
</g>
<defs>
<clipPath id="clip0_0_1178">
<rect width="21.5625" height="30" fill="white" transform="translate(0.21875)"/>
</clipPath>
</defs>
</svg>
